<svg width="50" height="50" viewBox="0 0 50 50" fill="none" xmlns="http://www.w3.org/2000/svg">
<path fill-rule="evenodd" clip-rule="evenodd" d="M22.9 6C21.2291 6 19.6267 6.66726 18.4452 7.85499C17.2637 9.04272 16.6 10.6536 16.6 12.3333V14.4444H10.3C8.62914 14.4444 7.02671 15.1117 5.84523 16.2994C4.66375 17.4872 4 19.0981 4 20.7778V37.6667C4 39.3464 4.66375 40.9573 5.84523 42.145C7.02671 43.3327 8.62914 44 10.3 44H39.7C41.3709 44 42.9733 43.3327 44.1548 42.145C45.3363 40.9573 46 39.3464 46 37.6667V20.7778C46 19.0981 45.3363 17.4872 44.1548 16.2994C42.9733 15.1117 41.3709 14.4444 39.7 14.4444H33.4V12.3333C33.4 10.6536 32.7363 9.04272 31.5548 7.85499C30.3733 6.66726 28.7709 6 27.1 6H22.9ZM29.2 14.4444H20.8V12.3333C20.8 11.7734 21.0212 11.2365 21.4151 10.8406C21.8089 10.4446 22.343 10.2222 22.9 10.2222H27.1C27.657 10.2222 28.1911 10.4446 28.5849 10.8406C28.9787 11.2365 29.2 11.7734 29.2 12.3333V14.4444Z" fill="#1C1D28"/>
</svg>
