<svg width="226" height="181" viewBox="0 0 226 181" fill="none" xmlns="http://www.w3.org/2000/svg">
<path d="M221.864 102.812L221.746 146.15L164.236 180.999L164.354 137.661L221.864 102.812Z" fill="#2C7EF8"/>
<path d="M164.354 137.662L164.236 181L5.04688 85.1635L5.16473 41.8252L164.354 137.662Z" fill="#0D5EA9"/>
<path d="M70.0051 124.832L69.8789 80.7324L79.8136 90.5739L79.5652 130.716L70.0051 124.832Z" fill="#1BB2E2"/>
<path d="M221.864 102.811L164.354 137.661L5.16504 41.8242L62.6748 6.97461L221.864 102.811Z" fill="#094567"/>
<path d="M225.999 99.8291L225.954 116.562L166.048 152.864L166.094 136.131L225.999 99.8291Z" fill="#0D5EA9"/>
<path d="M166.093 136.132L166.047 152.865L0.225586 53.0356L0.271023 36.3027L166.093 136.132Z" fill="#094567"/>
<path d="M225.999 99.8294L166.093 136.131L0.271484 36.3017L60.1776 0L225.999 99.8294Z" fill="#2C7EF8"/>
<path d="M23.0215 22.5867L192.821 120.098L193.567 136.155L202.508 131.493L202.011 114.659L33.1208 16.2451L23.0215 22.5867Z" fill="#43BEE5"/>
<path d="M135.374 45.3076L69.3242 78.6794L69.3821 96.0123L80.7149 101.773L81.5809 84.3596L146.269 50.9881L135.374 45.3076Z" fill="#43BEE5"/>
<path d="M95.1253 28.7666L82.1138 37.4006C81.5088 37.802 80.9634 38.5906 80.4848 39.8606C78.2845 45.7061 77.4697 47.1363 80.7069 51.647L93.7185 43.013C90.4813 38.5023 91.2961 37.0721 93.4964 31.2266C93.9749 29.9566 94.5201 29.1682 95.1253 28.7666Z" fill="#1BB2E2"/>
<path d="M98.4139 65.0382L111.425 56.4042C111.334 56.3479 109.591 55.2779 107.081 53.6233C102.543 50.6323 95.8019 45.9155 93.7186 43.0117L80.707 51.6457C82.7904 54.5495 89.5319 59.2663 94.0692 62.2573C96.5789 63.9117 98.3221 64.9816 98.4139 65.0382Z" fill="#92CBFF"/>
<path d="M101.096 66.7246L114.107 58.0909L111.425 56.4043L98.4131 65.0383L101.096 66.7246Z" fill="#43BEE5"/>
<path d="M94.1893 26.7075L81.1777 35.3415C82.5311 34.4435 84.0026 34.6669 85.5148 35.6638C93.0947 40.6596 101.279 63.8596 101.709 65.0806L114.721 56.4466C114.29 55.2256 106.106 32.0256 98.5264 27.0298C97.0144 26.0332 95.5429 25.8095 94.1893 26.7075Z" fill="#43BEE5"/>
<path d="M115.402 55.4572L102.391 64.0912C103.302 63.4863 104.841 63.9483 106.368 64.9545C108.09 66.0902 109.797 67.9184 110.568 69.6887L123.58 61.0547C122.808 59.2844 121.102 57.4562 119.38 56.3205C117.853 55.3143 116.314 54.8521 115.402 55.4572Z" fill="#92CBFF"/>
<path d="M111.962 73.7689L124.974 65.1349L125.055 61.0391L112.043 69.6731L111.962 73.7689Z" fill="#1BB2E2"/>
<path d="M112.044 69.6714L125.056 61.0374C125.106 60.8782 126.061 57.8537 125.984 57.8027L112.972 66.4367C113.05 66.4877 112.094 69.5122 112.044 69.6714Z" fill="#1BB2E2"/>
<path d="M136.484 71.7502L149.496 63.1162C143.336 67.2037 126.264 65.2792 124.973 65.1337L111.962 73.7677C113.253 73.9132 130.324 75.8374 136.484 71.7502Z" fill="#92CBFF"/>
<path d="M138.056 73.9751L151.068 65.3411C156.424 61.7865 153.462 54.5657 144.959 45.9507C143.855 44.8314 142.803 43.957 141.799 43.2954C138.364 41.0314 135.505 41.2733 133.145 42.8387L120.134 51.4727C122.493 49.9073 125.352 49.6654 128.788 51.9294C129.792 52.591 130.843 53.4654 131.948 54.5847C140.45 63.1997 143.413 70.4205 138.056 73.9751Z" fill="#43BEE5"/>
<path d="M120.134 54.7018L126.234 50.6543C127.003 50.9104 127.806 51.2981 128.644 51.8354C127.548 54.0094 126.712 56.2492 125.983 57.8025L112.972 66.4365C114.467 63.249 116.412 57.1715 120.134 54.7018Z" fill="#1BB2E2"/>
<path d="M78.7395 38.5439C73.9086 48.7863 82.8861 57.149 90.486 62.1593C92.6621 63.5938 94.726 64.754 96.3195 65.6039C97.919 66.4588 99.044 66.9995 99.3369 67.1926C99.4518 67.3172 99.6642 67.474 100.006 67.6996C102.619 69.4217 112.273 74.8574 112.781 75.1433C144.818 80.0336 146.531 69.3592 131.948 54.5827C130.844 53.4635 129.792 52.589 128.788 51.9274C116.536 43.8535 111.613 67.6503 110.568 69.688C109.797 67.9177 108.09 66.0894 106.368 64.9538C104.33 63.6102 102.269 63.2367 101.709 65.0784C101.279 63.8574 93.0947 40.6574 85.5149 35.6616C83.0328 34.0257 80.6607 34.4726 78.7395 38.5439ZM135.093 61.1062C149.981 78.0509 113.864 73.9798 111.963 73.7656L112.044 69.6697C112.094 69.5105 113.05 66.4863 112.972 66.435C115.361 61.3423 118.899 48.871 128.997 55.5276C130.808 56.7212 132.829 58.5297 135.093 61.1062ZM80.7073 51.6448C77.4701 47.1341 78.2849 45.7039 80.4852 39.8584C81.6381 36.7993 83.1776 36.5341 85.0084 37.7414C86.6743 38.8397 88.5814 41.1566 90.6578 43.6967C95.018 49.0297 100.44 64.1285 100.725 64.9233L101.096 66.7241L98.4139 65.0375C98.3221 64.9812 96.579 63.9113 94.0692 62.2567C89.5321 59.2652 82.7904 54.5483 80.7073 51.6448Z" fill="#4074FB"/>
<path d="M192.326 164.385L192.574 136.903L201.516 132.271L201.426 158.914L192.326 164.385Z" fill="#1BB2E2"/>
</svg>
