<svg width="322" height="181" viewBox="0 0 322 181" fill="none" xmlns="http://www.w3.org/2000/svg">
<path d="M135.577 126.054L135.577 108.614C135.577 106.584 137.223 104.938 139.254 104.938C141.284 104.938 142.93 106.584 142.93 108.614L142.93 126.054L135.577 126.054Z" fill="url(#paint0_linear_1275_327)"/>
<path d="M117.72 126.054L117.72 49.372C117.72 47.3415 119.366 45.6954 121.396 45.6954C123.427 45.6954 125.073 47.3415 125.073 49.372L125.073 126.054L117.72 126.054Z" fill="url(#paint1_linear_1275_327)"/>
<path d="M99.8633 126.054L99.8633 68.7283C99.8633 66.6979 101.509 65.0518 103.54 65.0518C105.57 65.0518 107.216 66.6979 107.216 68.7283L107.216 126.054L99.8633 126.054Z" fill="url(#paint2_linear_1275_327)"/>
<path d="M82.0059 126.054L82.0059 83.9788C82.0059 81.9483 83.6519 80.3023 85.6824 80.3023C87.7129 80.3023 89.3589 81.9483 89.3589 83.9788L89.3589 126.054L82.0059 126.054Z" fill="url(#paint3_linear_1275_327)"/>
<path d="M64.1475 126.054L64.1475 56.9972C64.1475 54.9667 65.7935 53.3207 67.824 53.3207C69.8545 53.3207 71.5005 54.9667 71.5005 56.9972L71.5005 126.054L64.1475 126.054Z" fill="url(#paint4_linear_1275_327)"/>
<path d="M46.292 126.054L46.292 92.7772C46.292 90.7467 47.938 89.1006 49.9685 89.1006C51.999 89.1006 53.645 90.7467 53.645 92.7772L53.645 126.054L46.292 126.054Z" fill="url(#paint5_linear_1275_327)"/>
<path d="M28.4336 126.054L28.4336 77.5267C28.4336 75.4962 30.0796 73.8502 32.1101 73.8502C34.1406 73.8502 35.7866 75.4962 35.7866 77.5267L35.7866 126.054L28.4336 126.054Z" fill="url(#paint6_linear_1275_327)"/>
<circle cx="161.839" cy="66.1771" r="66.1774" transform="rotate(-90 161.839 66.1771)" fill="#EFF4FB"/>
<path d="M161.839 -0.000265455C175.285 -0.000263585 188.413 4.09599 199.473 11.743C210.534 19.3901 219.002 30.2251 223.751 42.8052C228.5 55.3854 229.304 69.1137 226.056 82.1622C222.808 95.2107 215.662 106.96 205.57 115.846C195.478 124.732 182.918 130.332 169.563 131.902C156.209 133.472 142.693 130.936 130.815 124.632C118.937 118.328 109.262 108.556 103.077 96.6162C96.8921 84.6764 94.4911 71.1358 96.1938 57.7974L161.839 66.1771L161.839 -0.000265455Z" fill="#6AA6FF"/>
<path d="M161.839 -0.000265455C172.034 -0.000264037 182.091 2.3553 191.226 6.88265C200.361 11.41 208.326 17.9867 214.5 26.0996C220.674 34.2126 224.891 43.6424 226.82 53.6533C228.749 63.6643 228.34 73.9856 225.623 83.8121C222.906 93.6386 217.956 102.705 211.158 110.303C204.36 117.901 195.898 123.825 186.434 127.614C176.969 131.403 166.756 132.954 156.593 132.146C146.43 131.338 136.591 128.193 127.844 122.956L161.839 66.1771L161.839 -0.000265455Z" fill="#1859FF"/>
<g filter="url(#filter0_d_1275_327)">
<rect x="9" y="111.871" width="128.678" height="55.1478" rx="3.55792" fill="white"/>
</g>
<path d="M20.9352 144.777H21.7995V145.967H20.9352V147.467H21.7995V149.44H23.7237V147.467H26.023V145.967H23.7237V144.777H26.1209C28.6322 144.777 29.7084 142.999 29.7084 141.238C29.7084 139.46 28.6322 137.699 26.1209 137.699H21.7995V142.852H20.9352V144.777ZM23.7237 139.624H26.023C27.3113 139.624 27.8005 140.423 27.8005 141.222C27.8005 142.037 27.3113 142.852 26.0067 142.852H23.7237V139.624ZM34.8592 139.493L35.7072 141.189L37.8923 139.966V149.44H39.8166V137.699H38.1369L34.8592 139.493ZM41.2466 147.027H46.7585V149.44H48.6827V147.027H50.0199V145.103H48.6827V142.559H46.7585V145.103H43.5623L47.4271 137.699H45.2582L41.2466 145.396V147.027ZM49.8442 137.699V139.624H55.3234L51.3119 149.44H53.3829L57.5086 139.281V137.699H49.8442ZM57.1451 151.854H58.629L59.4444 147.435H57.4712L57.1451 151.854ZM64.2991 149.604C66.6962 149.604 68.3759 148.071 68.3759 145.853C68.3759 143.945 67.1365 142.526 65.3754 142.282L67.8051 139.297V137.699H61.054V139.624H65.0818L62.6521 142.64L63.5653 144.01C63.7773 143.929 64.0219 143.896 64.2665 143.896C65.5547 143.896 66.4516 144.695 66.4516 145.853C66.4516 146.962 65.5874 147.728 64.348 147.728C63.3044 147.728 62.4727 147.092 62.1139 146.032L60.3528 146.815C60.9561 148.527 62.4727 149.604 64.2991 149.604ZM70.864 141.01C71.1249 140.064 71.8913 139.46 72.8698 139.46C73.995 139.46 74.794 140.194 74.794 141.205C74.794 142.265 74.0439 143.097 73.2285 143.896L69.2659 147.826V149.44H76.9303V147.516H72.3153L74.5983 145.249C76.0986 143.749 76.7183 142.559 76.7183 141.14C76.7183 139.085 75.0712 137.536 72.8861 137.536C71.0923 137.536 69.5757 138.645 69.0702 140.292L70.864 141.01ZM77.7148 147.027H83.2266V149.44H85.1508V147.027H86.488V145.103H85.1508V142.559H83.2266V145.103H80.0304L83.8952 137.699H81.7263L77.7148 145.396V147.027Z" fill="#3F3F3F"/>
<path d="M20.6569 127.842V124.289H22.8724V124.75H21.193V125.722H21.9876C22.2513 125.722 22.4751 125.765 22.659 125.85C22.844 125.936 22.9851 126.057 23.0823 126.213C23.1806 126.369 23.2298 126.553 23.2298 126.764C23.2298 126.976 23.1806 127.163 23.0823 127.325C22.9851 127.487 22.844 127.613 22.659 127.705C22.4751 127.796 22.2513 127.842 21.9876 127.842H20.6569ZM21.193 127.391H21.9876C22.1403 127.391 22.2692 127.361 22.3745 127.301C22.4809 127.24 22.5612 127.162 22.6156 127.066C22.6711 126.97 22.6989 126.867 22.6989 126.758C22.6989 126.598 22.6376 126.461 22.515 126.346C22.3924 126.231 22.2166 126.173 21.9876 126.173H21.193V127.391ZM24.5968 127.901C24.428 127.901 24.2753 127.87 24.1388 127.807C24.0023 127.743 23.8942 127.652 23.8144 127.531C23.7358 127.411 23.6964 127.264 23.6964 127.089C23.6964 126.939 23.7253 126.815 23.7832 126.718C23.841 126.62 23.9191 126.544 24.0174 126.487C24.1157 126.43 24.2256 126.387 24.347 126.358C24.4684 126.33 24.5922 126.308 24.7183 126.293C24.8779 126.274 25.0074 126.259 25.1069 126.247C25.2063 126.235 25.2786 126.214 25.3237 126.187C25.3688 126.159 25.3914 126.114 25.3914 126.051V126.039C25.3914 125.888 25.3486 125.77 25.263 125.687C25.1786 125.604 25.0525 125.562 24.8848 125.562C24.7102 125.562 24.5725 125.601 24.4719 125.678C24.3724 125.755 24.3036 125.84 24.2655 125.933L23.778 125.822C23.8358 125.66 23.9202 125.53 24.0313 125.43C24.1434 125.33 24.2724 125.257 24.4181 125.212C24.5639 125.165 24.7171 125.142 24.8779 125.142C24.9843 125.142 25.097 125.155 25.2162 125.181C25.3365 125.205 25.4486 125.25 25.5527 125.316C25.658 125.382 25.7441 125.476 25.8112 125.599C25.8783 125.72 25.9119 125.878 25.9119 126.072V127.842H25.4053V127.477H25.3845C25.3509 127.545 25.3006 127.61 25.2335 127.675C25.1664 127.74 25.0803 127.794 24.975 127.837C24.8698 127.879 24.7437 127.901 24.5968 127.901ZM24.7096 127.484C24.853 127.484 24.9756 127.456 25.0774 127.399C25.1803 127.343 25.2584 127.269 25.3116 127.177C25.3659 127.085 25.3931 126.986 25.3931 126.881V126.537C25.3746 126.556 25.3388 126.573 25.2856 126.589C25.2335 126.604 25.174 126.618 25.1069 126.629C25.0398 126.64 24.9744 126.649 24.9108 126.659C24.8472 126.667 24.794 126.674 24.7512 126.679C24.6506 126.692 24.5587 126.714 24.4754 126.744C24.3933 126.774 24.3273 126.817 24.2776 126.874C24.229 126.929 24.2047 127.003 24.2047 127.096C24.2047 127.224 24.2522 127.321 24.347 127.387C24.4418 127.452 24.5627 127.484 24.7096 127.484ZM26.3928 127.842L26.3911 127.392H26.4865C26.5605 127.392 26.6224 127.377 26.6722 127.346C26.723 127.313 26.7647 127.259 26.7971 127.183C26.8295 127.106 26.8543 127.001 26.8717 126.867C26.889 126.731 26.9017 126.561 26.9098 126.357L26.9567 125.177H28.8164V127.842H28.3081V125.625H27.4372L27.3956 126.53C27.3852 126.75 27.3626 126.942 27.3279 127.106C27.2944 127.27 27.2452 127.408 27.1805 127.517C27.1157 127.626 27.0324 127.708 26.9307 127.762C26.8289 127.815 26.7051 127.842 26.5594 127.842H26.3928ZM30.2837 127.901C30.1149 127.901 29.9622 127.87 29.8257 127.807C29.6892 127.743 29.5811 127.652 29.5013 127.531C29.4226 127.411 29.3833 127.264 29.3833 127.089C29.3833 126.939 29.4122 126.815 29.4701 126.718C29.5279 126.62 29.606 126.544 29.7043 126.487C29.8026 126.43 29.9124 126.387 30.0339 126.358C30.1553 126.33 30.2791 126.308 30.4052 126.293C30.5648 126.274 30.6943 126.259 30.7938 126.247C30.8932 126.235 30.9655 126.214 31.0106 126.187C31.0557 126.159 31.0783 126.114 31.0783 126.051V126.039C31.0783 125.888 31.0355 125.77 30.9499 125.687C30.8655 125.604 30.7394 125.562 30.5717 125.562C30.3971 125.562 30.2594 125.601 30.1588 125.678C30.0593 125.755 29.9905 125.84 29.9524 125.933L29.4649 125.822C29.5227 125.66 29.6071 125.53 29.7181 125.43C29.8303 125.33 29.9593 125.257 30.105 125.212C30.2507 125.165 30.404 125.142 30.5648 125.142C30.6712 125.142 30.7839 125.155 30.9031 125.181C31.0233 125.205 31.1355 125.25 31.2396 125.316C31.3449 125.382 31.431 125.476 31.4981 125.599C31.5652 125.72 31.5987 125.878 31.5987 126.072V127.842H31.0922V127.477H31.0713C31.0378 127.545 30.9875 127.61 30.9204 127.675C30.8533 127.74 30.7672 127.794 30.6619 127.837C30.5567 127.879 30.4306 127.901 30.2837 127.901ZM30.3965 127.484C30.5399 127.484 30.6625 127.456 30.7643 127.399C30.8672 127.343 30.9453 127.269 30.9985 127.177C31.0528 127.085 31.08 126.986 31.08 126.881V126.537C31.0615 126.556 31.0257 126.573 30.9725 126.589C30.9204 126.604 30.8608 126.618 30.7938 126.629C30.7267 126.64 30.6613 126.649 30.5977 126.659C30.5341 126.667 30.4809 126.674 30.4381 126.679C30.3375 126.692 30.2455 126.714 30.1623 126.744C30.0802 126.774 30.0142 126.817 29.9645 126.874C29.9159 126.929 29.8916 127.003 29.8916 127.096C29.8916 127.224 29.9391 127.321 30.0339 127.387C30.1287 127.452 30.2496 127.484 30.3965 127.484ZM34.0956 126.286V126.735H32.6522V126.286H34.0956ZM32.798 125.177V127.842H32.2896V125.177H32.798ZM34.4582 125.177V127.842H33.9516V125.177H34.4582ZM36.2746 127.896C36.0167 127.896 35.7947 127.837 35.6084 127.72C35.4234 127.602 35.2811 127.44 35.1817 127.233C35.0822 127.026 35.0325 126.789 35.0325 126.522C35.0325 126.251 35.0834 126.012 35.1851 125.805C35.2869 125.597 35.4303 125.434 35.6154 125.318C35.8004 125.201 36.0185 125.142 36.2694 125.142C36.4718 125.142 36.6523 125.18 36.8107 125.255C36.9692 125.329 37.097 125.433 37.1941 125.567C37.2924 125.702 37.3508 125.858 37.3693 126.038H36.8645C36.8367 125.913 36.7731 125.805 36.6737 125.715C36.5753 125.625 36.4435 125.58 36.2781 125.58C36.1335 125.58 36.0069 125.618 35.8982 125.694C35.7906 125.769 35.7068 125.877 35.6466 126.017C35.5865 126.156 35.5564 126.32 35.5564 126.509C35.5564 126.704 35.5859 126.871 35.6449 127.013C35.7039 127.154 35.7871 127.263 35.8947 127.34C36.0034 127.418 36.1312 127.457 36.2781 127.457C36.3764 127.457 36.4655 127.439 36.5453 127.403C36.6262 127.366 36.6939 127.313 36.7483 127.245C36.8038 127.177 36.8425 127.095 36.8645 126.999H37.3693C37.3508 127.171 37.2947 127.325 37.2011 127.46C37.1074 127.595 36.9819 127.702 36.8246 127.779C36.6684 127.857 36.4851 127.896 36.2746 127.896Z" fill="#888888"/>
<g filter="url(#filter1_d_1275_327)">
<rect x="161.838" y="80.3594" width="149.162" height="64.2224" rx="4.14338" fill="white"/>
</g>
<path d="M177.642 112.562L178.629 114.537L181.174 113.113V124.146H183.415V110.473H181.459L177.642 112.562ZM185.513 126.957H187.241L188.191 121.811H185.893L185.513 126.957ZM193.844 124.336C196.636 124.336 198.592 122.551 198.592 119.969C198.592 117.747 197.149 116.095 195.098 115.81L197.927 112.334V110.473H190.065V112.714H194.756L191.926 116.227L192.99 117.823C193.237 117.728 193.521 117.69 193.806 117.69C195.307 117.69 196.351 118.62 196.351 119.969C196.351 121.26 195.345 122.152 193.901 122.152C192.686 122.152 191.717 121.412 191.3 120.177L189.249 121.089C189.951 123.083 191.717 124.336 193.844 124.336ZM199.284 110.473V112.714H205.665L200.993 124.146H203.405L208.209 112.315V110.473H199.284ZM207.873 121.336H214.291V124.146H216.532V121.336H218.09V119.095H216.532V116.132H214.291V119.095H210.569L215.07 110.473H212.544L207.873 119.437V121.336Z" fill="#3F3F3F"/>
<path d="M181.065 94.9971V99.1348H180.443V95.5305H178.495V99.1348H177.873V94.9971H181.065ZM183.278 99.1974C182.987 99.1974 182.734 99.1307 182.517 98.9974C182.3 98.864 182.132 98.6775 182.012 98.4377C181.892 98.198 181.832 97.9178 181.832 97.5973C181.832 97.2754 181.892 96.9939 182.012 96.7528C182.132 96.5117 182.3 96.3245 182.517 96.1911C182.734 96.0578 182.987 95.9911 183.278 95.9911C183.569 95.9911 183.823 96.0578 184.04 96.1911C184.257 96.3245 184.425 96.5117 184.545 96.7528C184.665 96.9939 184.725 97.2754 184.725 97.5973C184.725 97.9178 184.665 98.198 184.545 98.4377C184.425 98.6775 184.257 98.864 184.04 98.9974C183.823 99.1307 183.569 99.1974 183.278 99.1974ZM183.28 98.6903C183.469 98.6903 183.625 98.6405 183.749 98.5408C183.873 98.4411 183.965 98.3084 184.024 98.1428C184.085 97.9771 184.115 97.7946 184.115 97.5953C184.115 97.3973 184.085 97.2154 184.024 97.0498C183.965 96.8828 183.873 96.7487 183.749 96.6477C183.625 96.5467 183.469 96.4962 183.28 96.4962C183.091 96.4962 182.933 96.5467 182.808 96.6477C182.684 96.7487 182.591 96.8828 182.531 97.0498C182.472 97.2154 182.442 97.3973 182.442 97.5953C182.442 97.7946 182.472 97.9771 182.531 98.1428C182.591 98.3084 182.684 98.4411 182.808 98.5408C182.933 98.6405 183.091 98.6903 183.28 98.6903ZM185.399 99.1348V96.0315H186.003V97.3326H186.294L187.319 96.0315H188.066L186.864 97.5407L188.08 99.1348H187.331L186.395 97.8943H186.003V99.1348H185.399ZM188.948 100.298C188.858 100.298 188.776 100.291 188.701 100.276C188.627 100.263 188.572 100.248 188.536 100.232L188.681 99.7368C188.792 99.7665 188.89 99.7793 188.976 99.7752C189.062 99.7712 189.139 99.7388 189.205 99.6782C189.272 99.6176 189.331 99.5186 189.382 99.3812L189.457 99.1752L188.322 96.0315H188.968L189.754 98.4398H189.786L190.572 96.0315H191.221L189.942 99.5489C189.883 99.7106 189.807 99.8473 189.716 99.9591C189.624 100.072 189.515 100.157 189.388 100.214C189.262 100.27 189.115 100.298 188.948 100.298ZM191.789 99.1348V96.0315H194.32V99.1348H193.728V96.5528H192.376V99.1348H191.789ZM196.435 99.1974C196.144 99.1974 195.89 99.1307 195.673 98.9974C195.456 98.864 195.288 98.6775 195.168 98.4377C195.048 98.198 194.988 97.9178 194.988 97.5973C194.988 97.2754 195.048 96.9939 195.168 96.7528C195.288 96.5117 195.456 96.3245 195.673 96.1911C195.89 96.0578 196.144 95.9911 196.435 95.9911C196.726 95.9911 196.98 96.0578 197.196 96.1911C197.413 96.3245 197.582 96.5117 197.702 96.7528C197.821 96.9939 197.881 97.2754 197.881 97.5973C197.881 97.9178 197.821 98.198 197.702 98.4377C197.582 98.6775 197.413 98.864 197.196 98.9974C196.98 99.1307 196.726 99.1974 196.435 99.1974ZM196.437 98.6903C196.625 98.6903 196.782 98.6405 196.906 98.5408C197.029 98.4411 197.121 98.3084 197.18 98.1428C197.241 97.9771 197.271 97.7946 197.271 97.5953C197.271 97.3973 197.241 97.2154 197.18 97.0498C197.121 96.8828 197.029 96.7487 196.906 96.6477C196.782 96.5467 196.625 96.4962 196.437 96.4962C196.247 96.4962 196.089 96.5467 195.964 96.6477C195.84 96.7487 195.748 96.8828 195.687 97.0498C195.628 97.2154 195.598 97.3973 195.598 97.5953C195.598 97.7946 195.628 97.9771 195.687 98.1428C195.748 98.3084 195.84 98.4411 195.964 98.5408C196.089 98.6405 196.247 98.6903 196.437 98.6903ZM198.556 99.1348V96.0315H199.16V97.3326H199.451L200.475 96.0315H201.223L200.02 97.5407L201.237 99.1348H200.487L199.552 97.8943H199.16V99.1348H198.556Z" fill="#888888"/>
<defs>
<filter id="filter0_d_1275_327" x="0.10519" y="107.127" width="146.468" height="72.9371" filterUnits="userSpaceOnUse" color-interpolation-filters="sRGB">
<feFlood flood-opacity="0" result="BackgroundImageFix"/>
<feColorMatrix in="SourceAlpha" type="matrix" values="0 0 0 0 0 0 0 0 0 0 0 0 0 0 0 0 0 0 127 0" result="hardAlpha"/>
<feOffset dy="4.15091"/>
<feGaussianBlur stdDeviation="4.4474"/>
<feComposite in2="hardAlpha" operator="out"/>
<feColorMatrix type="matrix" values="0 0 0 0 0 0 0 0 0 0 0 0 0 0 0 0 0 0 0.05 0"/>
<feBlend mode="normal" in2="BackgroundImageFix" result="effect1_dropShadow_1275_327"/>
<feBlend mode="normal" in="SourceGraphic" in2="effect1_dropShadow_1275_327" result="shape"/>
</filter>
<filter id="filter1_d_1275_327" x="151.479" y="74.8349" width="169.879" height="84.9396" filterUnits="userSpaceOnUse" color-interpolation-filters="sRGB">
<feFlood flood-opacity="0" result="BackgroundImageFix"/>
<feColorMatrix in="SourceAlpha" type="matrix" values="0 0 0 0 0 0 0 0 0 0 0 0 0 0 0 0 0 0 127 0" result="hardAlpha"/>
<feOffset dy="4.83395"/>
<feGaussianBlur stdDeviation="5.17923"/>
<feComposite in2="hardAlpha" operator="out"/>
<feColorMatrix type="matrix" values="0 0 0 0 0 0 0 0 0 0 0 0 0 0 0 0 0 0 0.05 0"/>
<feBlend mode="normal" in2="BackgroundImageFix" result="effect1_dropShadow_1275_327"/>
<feBlend mode="normal" in="SourceGraphic" in2="effect1_dropShadow_1275_327" result="shape"/>
</filter>
<linearGradient id="paint0_linear_1275_327" x1="139.254" y1="106.111" x2="139.254" y2="126.054" gradientUnits="userSpaceOnUse">
<stop stop-color="#189EFF"/>
<stop offset="1" stop-color="#1890FF" stop-opacity="0.28"/>
</linearGradient>
<linearGradient id="paint1_linear_1275_327" x1="121.396" y1="50.1598" x2="121.396" y2="126.054" gradientUnits="userSpaceOnUse">
<stop stop-color="#189EFF"/>
<stop offset="1" stop-color="#1890FF" stop-opacity="0.28"/>
</linearGradient>
<linearGradient id="paint2_linear_1275_327" x1="103.54" y1="68.4408" x2="103.54" y2="126.054" gradientUnits="userSpaceOnUse">
<stop stop-color="#189EFF"/>
<stop offset="1" stop-color="#1890FF" stop-opacity="0.28"/>
</linearGradient>
<linearGradient id="paint3_linear_1275_327" x1="85.6823" y1="82.844" x2="85.6823" y2="126.054" gradientUnits="userSpaceOnUse">
<stop stop-color="#189EFF"/>
<stop offset="1" stop-color="#1890FF" stop-opacity="0.28"/>
</linearGradient>
<linearGradient id="paint4_linear_1275_327" x1="67.8239" y1="57.3614" x2="67.8239" y2="126.054" gradientUnits="userSpaceOnUse">
<stop stop-color="#189EFF"/>
<stop offset="1" stop-color="#1890FF" stop-opacity="0.28"/>
</linearGradient>
<linearGradient id="paint5_linear_1275_327" x1="49.9684" y1="91.1536" x2="49.9684" y2="126.054" gradientUnits="userSpaceOnUse">
<stop stop-color="#189EFF"/>
<stop offset="1" stop-color="#1890FF" stop-opacity="0.28"/>
</linearGradient>
<linearGradient id="paint6_linear_1275_327" x1="32.11" y1="76.7504" x2="32.11" y2="126.054" gradientUnits="userSpaceOnUse">
<stop stop-color="#189EFF"/>
<stop offset="1" stop-color="#1890FF" stop-opacity="0.28"/>
</linearGradient>
</defs>
</svg>
