<svg width="50" height="50" viewBox="0 0 50 50" fill="none" xmlns="http://www.w3.org/2000/svg">
<g clip-path="url(#clip0_1255_120)">
<path d="M16.3115 30.209C12.3936 30.4609 8.83789 31.9531 6.82031 37.2695C6.59082 37.876 6.03906 38.2441 5.39551 38.2441C4.31055 38.2441 0.956055 35.542 0 34.8896C0.000976563 42.9316 3.70508 50 12.501 50C19.9092 50 25.001 45.7256 25.001 38.2627C25.001 37.959 24.9375 37.6689 24.9063 37.3711L16.3115 30.209ZM44.7168 0C43.2363 0 41.8486 0.655274 40.7901 1.60645C20.8281 19.4385 18.751 19.8574 18.751 25.1064C18.751 26.4443 19.0684 27.7197 19.6035 28.8857L25.8359 34.0791C26.54 34.2549 27.2656 34.375 28.0225 34.375C34.0879 34.375 37.6035 29.9346 48.6436 9.33008C49.3643 7.92871 50.001 6.41504 50.001 4.83887C50.001 2.01562 47.4619 0 44.7168 0Z" fill="#1C1D28"/>
</g>
<defs>
<clipPath id="clip0_1255_120">
<rect width="50" height="50" fill="white"/>
</clipPath>
</defs>
</svg>
