<svg width="50" height="50" viewBox="0 0 50 50" fill="none" xmlns="http://www.w3.org/2000/svg">
<path d="M49.1703 12.7053C49.0546 12.4672 48.8837 12.2602 48.6718 12.1016C48.4598 11.943 48.2131 11.8374 47.952 11.7935C47.691 11.7496 47.4232 11.7688 47.1711 11.8494C46.9189 11.93 46.6897 12.0697 46.5026 12.2569L41.4617 17.2975C41.256 17.5004 40.9788 17.6141 40.69 17.6141C40.4012 17.6141 40.124 17.5004 39.9183 17.2975L37.7029 15.0822C37.5003 14.8763 37.3867 14.599 37.3867 14.3101C37.3867 14.0212 37.5003 13.7439 37.7029 13.538L42.7172 8.52293C42.9091 8.3311 43.051 8.09518 43.1306 7.83581C43.2102 7.57644 43.225 7.30152 43.1737 7.03509C43.1225 6.76867 43.0067 6.51886 42.8366 6.30752C42.6665 6.09617 42.4472 5.92973 42.1978 5.82275C38.2844 4.14746 33.4189 5.08858 30.3717 8.11791C27.7295 10.7402 26.9391 14.8191 28.2035 19.3227C28.2581 19.516 28.2578 19.7206 28.2028 19.9137C28.1478 20.1069 28.0403 20.281 27.8921 20.4165L10.8526 36.2481C10.2881 36.7559 9.83289 37.3733 9.51472 38.0628C9.19656 38.7522 9.0221 39.4991 9.00197 40.2582C8.98183 41.0172 9.11645 41.7724 9.39761 42.4777C9.67878 43.183 10.1006 43.8237 10.6374 44.3607C11.1742 44.8977 11.8147 45.3199 12.5199 45.6014C13.2251 45.8829 13.9802 46.0179 14.7393 45.9981C15.4984 45.9784 16.2455 45.8043 16.9351 45.4865C17.6247 45.1687 18.2424 44.7138 18.7505 44.1496L34.7247 27.0813C34.8584 26.9365 35.0291 26.8308 35.2184 26.7758C35.4077 26.7208 35.6084 26.7184 35.7989 26.7689C40.2337 27.9514 44.2743 27.1631 46.879 24.6008C48.377 23.1226 49.4226 21.0364 49.8247 18.7166C50.2022 16.5289 49.9637 14.3372 49.1703 12.7053V12.7053Z" fill="#1C1D28"/>
<path d="M42.9547 37.5644C41.5855 36.4222 38.6605 33.7798 35.6795 31.038L29.1901 37.9971C31.9638 40.9538 34.4744 43.6987 35.5744 44.9829L35.5813 44.9908C35.8456 45.2943 36.1688 45.5403 36.5313 45.7139C36.8938 45.8874 37.2878 45.9848 37.6891 46H37.7972C38.5688 45.9977 39.309 45.6928 39.8598 45.1504L39.8667 45.1435L43.1502 41.8547C43.4354 41.5691 43.6581 41.2269 43.8039 40.85C43.9497 40.4732 44.0154 40.0699 43.997 39.666C43.9785 39.2621 43.8761 38.8666 43.6965 38.5047C43.5168 38.1428 43.2639 37.8226 42.9537 37.5644H42.9547ZM11.643 21.4148C11.6446 21.0407 11.5426 20.6736 11.3483 20.3543C11.3211 20.3111 11.3066 20.2611 11.3064 20.2101C11.3062 20.159 11.3203 20.1089 11.3471 20.0655C11.374 20.0221 11.4125 19.9871 11.4582 19.9646C11.5039 19.9422 11.555 19.9331 11.6057 19.9384H11.6116C11.6941 19.9473 12.1351 20.0113 12.7607 20.3927C13.2253 20.6756 14.5513 21.5833 16.8595 23.8955C16.8349 24.683 17.0858 25.4543 17.5686 26.0756L24.0738 20.0094C23.4976 19.4619 22.7448 19.1402 21.9522 19.1026C21.9448 19.0945 21.9379 19.086 21.9316 19.077L21.8677 19.009L19.4574 15.6738C19.1895 15.3087 19.0137 14.8838 18.9453 14.4357C18.8769 13.9875 18.9178 13.5293 19.0645 13.1005C19.2856 12.4617 19.6878 11.9017 20.2216 11.489C20.7804 11.0544 22.0416 10.5311 23.1132 10.4424C23.6124 10.4009 24.1149 10.4322 24.6052 10.535C24.84 10.5919 25.0716 10.662 25.2986 10.7449C25.3674 10.7707 25.438 10.7915 25.5098 10.807C25.8215 10.8763 26.147 10.8487 26.4427 10.7278C26.7384 10.6069 26.9904 10.3984 27.1651 10.1302C27.3398 9.86198 27.429 9.54672 27.4207 9.2264C27.4124 8.90608 27.307 8.5959 27.1186 8.33717C27.0931 8.30267 26.989 8.16075 26.8348 7.96955C26.547 7.60541 26.2318 7.26405 25.8918 6.94849C25.0913 6.2231 23.0169 5 20.2933 5C18.7346 4.99886 17.1904 5.30006 15.7457 5.88702C11.9769 7.40974 9.5116 9.49226 8.37814 10.5971L8.3693 10.606C7.60662 11.3616 6.90046 12.1727 6.25657 13.0325C6.01315 13.3769 5.85491 13.7745 5.79494 14.1925C5.76691 14.3703 5.67374 14.5312 5.53366 14.6437C5.39358 14.7562 5.2167 14.8121 5.03766 14.8006H4.9306C4.39515 14.797 3.88002 15.006 3.49756 15.3821L0.604964 18.2117L0.573533 18.2432C0.209672 18.6225 0.00445616 19.1273 7.17223e-05 19.6538C-0.00431271 20.1803 0.192468 20.6884 0.54996 21.0738C0.568622 21.0935 0.586302 21.1122 0.605946 21.1309L5.27142 25.6971C5.65582 26.075 6.1722 26.2873 6.71035 26.2885C7.2458 26.292 7.76093 26.083 8.14339 25.707L11.037 22.8695C11.23 22.6801 11.383 22.4538 11.4872 22.2039C11.5913 21.954 11.6443 21.6856 11.643 21.4148V21.4148Z" fill="#1C1D28"/>
</svg>
