<svg width="50" height="50" viewBox="0 0 50 50" fill="none" xmlns="http://www.w3.org/2000/svg">
<path d="M28.7524 46H21.2489C20.7788 46.0001 20.3227 45.8364 19.9564 45.5362C19.5901 45.236 19.3355 44.8172 19.2349 44.3494L18.396 40.393C17.2767 39.8934 16.2155 39.2687 15.2317 38.5303L11.445 39.7588C10.9967 39.9044 10.5131 39.8895 10.0744 39.7164C9.63567 39.5434 9.26825 39.2226 9.03314 38.8075L5.27318 32.1904C5.04054 31.7749 4.95321 31.2912 5.02549 30.8186C5.09776 30.3459 5.32535 29.9122 5.67102 29.5885L8.6085 26.8585C8.47491 25.6218 8.47491 24.374 8.6085 23.1373L5.67102 20.4136C5.32486 20.0897 5.09696 19.6557 5.02467 19.1825C4.95239 18.7094 5.04001 18.2253 5.27318 17.8096L9.0249 11.1883C9.26 10.7732 9.62742 10.4524 10.0661 10.2794C10.5049 10.1063 10.9885 10.0914 11.4367 10.237L15.2235 11.4655C15.7265 11.0875 16.2501 10.7347 16.7901 10.4155C17.3117 10.1173 17.8476 9.8464 18.396 9.6049L19.237 5.6527C19.3371 5.18482 19.5912 4.76584 19.9571 4.46525C20.3231 4.16466 20.7788 4.0005 21.2489 4H28.7524C29.2224 4.0005 29.6782 4.16466 30.0441 4.46525C30.4101 4.76584 30.6641 5.18482 30.7643 5.6527L31.6136 9.607C32.7313 10.1095 33.7923 10.734 34.7778 11.4697L38.5666 10.2412C39.0146 10.0961 39.4977 10.1114 39.936 10.2844C40.3743 10.4574 40.7413 10.7778 40.9764 11.1925L44.7281 17.8138C45.2063 18.6685 45.0414 19.75 44.3302 20.4157L41.3928 23.1457C41.5263 24.3824 41.5263 25.6302 41.3928 26.8669L44.3302 29.5969C45.0414 30.2647 45.2063 31.3441 44.7281 32.1988L40.9764 38.8201C40.7413 39.2352 40.3738 39.556 39.9351 39.729C39.4964 39.9021 39.0128 39.917 38.5645 39.7714L34.7778 38.5429C33.7948 39.2807 32.7342 39.9048 31.6156 40.4035L30.7643 44.3494C30.6637 44.8169 30.4095 45.2354 30.0436 45.5356C29.6777 45.8357 29.2221 45.9996 28.7524 46V46ZM24.9924 16.6C22.8055 16.6 20.7082 17.485 19.1619 19.0603C17.6156 20.6356 16.7468 22.7722 16.7468 25C16.7468 27.2278 17.6156 29.3644 19.1619 30.9397C20.7082 32.515 22.8055 33.4 24.9924 33.4C27.1792 33.4 29.2765 32.515 30.8229 30.9397C32.3692 29.3644 33.2379 27.2278 33.2379 25C33.2379 22.7722 32.3692 20.6356 30.8229 19.0603C29.2765 17.485 27.1792 16.6 24.9924 16.6V16.6Z" fill="#1C1D28"/>
</svg>
