<svg width="389" height="408" viewBox="0 0 389 408" fill="none" xmlns="http://www.w3.org/2000/svg">
<path d="M200.331 407.088L199.859 219.254L129.006 178.079L129.002 176.785L29.7715 120.41L30.2442 308.244L120.657 359.61L120.66 360.788L200.331 407.088Z" fill="#0D55A9"/>
<path d="M96.2142 204.102L95.9629 346.204L112.429 355.773L112.68 213.671L96.2142 204.102Z" fill="#BA6B1E"/>
<path d="M370.918 308.243L370.229 120.409L333.454 141.515V141.43L199.334 219.254L199.451 407.088L300.152 348.679V348.743L370.918 308.243Z" fill="#2C7EF8"/>
<path d="M277.529 227.977L277.26 362.84L291.416 354.667L291.685 219.804L277.529 227.977Z" fill="#FBC040"/>
<path d="M194.189 223.189L194.349 279.311L388.381 168.418L388.221 112.297L194.189 223.189Z" fill="#0D55A9"/>
<path d="M0.632812 112.209L0.791977 168.331L193.654 281.325V224.051L0.632812 112.209Z" fill="#0A2C6D"/>
<path d="M89.2276 163.527L89.0996 220.208L102.553 227.895V172.16L89.2276 163.527Z" fill="#E28D1B"/>
<path d="M193.807 224.543L193.966 280.664L265.04 239.629L264.881 183.508L193.807 224.543Z" fill="#0D55A9"/>
<path d="M0.65625 112.295L81.9533 159.539L114.62 178.523L193.807 224.542L264.881 183.507L309.369 157.822L388.221 112.297L310.474 67.115L277.327 47.8523L195.07 0.0498047L121.537 42.5044L78.5028 67.3503L0.65625 112.295Z" fill="#2C7EF8"/>
<path d="M102.458 171.654L300.993 61.0494L287.516 53.1377L89.2324 163.968" fill="#FBC040"/>
<path d="M285.079 172.241L95.5762 57.2671L109.27 48.7451L299.785 163.816L285.079 172.241Z" fill="#FBC040"/>
<path d="M176.927 67.8545L159.963 77.7125C159.175 78.1709 158.464 79.0709 157.84 80.5211C154.971 87.1955 153.909 88.8281 158.129 93.9788L175.093 84.1208C170.872 78.9706 171.935 77.3375 174.803 70.6631C175.428 69.213 176.138 68.3129 176.927 67.8545Z" fill="#E28D1B"/>
<path d="M181.213 109.268L198.177 99.4102C198.057 99.3457 195.785 98.1244 192.513 96.2352C186.597 92.8202 177.808 87.4343 175.092 84.1191L158.129 93.9771C160.845 97.2922 169.634 102.678 175.549 106.093C178.821 107.982 181.093 109.204 181.213 109.268Z" fill="#FFEC92"/>
<path d="M184.71 111.195L201.674 101.337L198.176 99.4111L181.213 109.269L184.71 111.195Z" fill="#FF6050"/>
<path d="M175.706 65.5031L158.742 75.3611C160.507 74.3357 162.425 74.5908 164.397 75.7292C174.279 81.4334 184.948 107.923 185.51 109.317L202.473 99.4587C201.912 98.0643 191.242 71.5754 181.36 65.8712C179.388 64.7333 177.47 64.4781 175.706 65.5031Z" fill="#FFEC92"/>
<path d="M189.517 106.727C180.665 108.521 169.292 110.826 169.263 110.826C156.987 110.706 136.995 98.3663 135.496 98.6868C122.92 101.374 112.584 111.657 104.559 122.787C142.518 94.9145 147.332 121.998 163.835 120.053C178.113 118.37 190.585 115.421 200.198 112.535C196.588 110.688 193.02 108.767 189.517 106.727Z" fill="#BA6B1E"/>
<path d="M189.927 106.962C187.003 112.464 182.327 121 176.528 130.666C168.238 144.482 157.668 140.069 145.447 141.859C136.898 147.792 132.508 157.487 130.619 167.936C136.472 159.972 145.487 154.167 159.78 151.881C183.007 148.164 196.17 121.311 199.935 112.401C196.555 110.667 193.213 108.864 189.927 106.962Z" fill="#BA6B1E"/>
<path d="M168.065 118.511C167.881 117.208 167.707 115.903 167.531 114.598C167.15 114.22 166.896 113.692 166.894 112.997C166.893 112.197 166.879 111.404 166.851 110.612C156.367 108.869 136.988 98.3676 135.495 98.6868C134.078 98.9896 132.693 99.3991 131.334 99.8853C130.204 101.283 129.075 102.681 127.94 104.075C126.089 107.118 124.009 110.018 121.701 112.747C144.561 103.52 150.223 121.657 163.834 120.053C165.394 119.869 166.927 119.668 168.443 119.455C168.254 119.207 168.119 118.895 168.065 118.511Z" fill="#E28D1B"/>
<path d="M167.562 149.051C164.683 148.802 161.678 147.761 158.786 146.448C154.629 145.083 150.534 143.533 146.53 141.714C146.162 141.758 145.789 141.823 145.418 141.878C138.133 146.946 133.866 154.746 131.604 163.42C132.049 163.786 132.49 164.157 132.942 164.515C133.046 164.598 133.132 164.688 133.212 164.78C139.046 158.444 147.448 153.853 159.778 151.881C162.848 151.389 165.739 150.49 168.458 149.286C168.16 149.207 167.86 149.131 167.562 149.051Z" fill="#E28D1B"/>
<path d="M180.4 124.096C179.504 125.641 178.56 127.242 177.594 128.868C177.85 130.539 178.041 132.242 178.076 133.907C179.179 137.02 179.461 140.282 178.409 143.043C184.723 137.839 189.692 131.208 193.346 125.217C189.019 125.008 184.698 124.715 180.4 124.096Z" fill="#E28D1B"/>
<path d="M203.362 98.3304L186.398 108.188C187.587 107.498 189.593 108.025 191.584 109.174C193.829 110.471 196.054 112.558 197.06 114.579L214.023 104.721C213.018 102.7 210.793 100.613 208.547 99.3161C206.557 98.1674 204.55 97.6397 203.362 98.3304Z" fill="#FBC040"/>
<path d="M198.877 119.235L215.84 109.377L215.946 104.7L198.982 114.559L198.877 119.235Z" fill="#BA6B1E"/>
<path d="M198.98 114.558L215.944 104.7C216.01 104.518 217.255 101.065 217.154 101.007L200.191 110.865C200.292 110.923 199.046 114.376 198.98 114.558Z" fill="#BA6B1E"/>
<path d="M230.845 116.931L247.809 107.073C239.778 111.74 217.521 109.543 215.839 109.377L198.875 119.235C200.558 119.401 222.815 121.598 230.845 116.931Z" fill="#FFEC92"/>
<path d="M232.895 119.472L249.858 109.614C256.842 105.556 252.979 97.3113 241.895 87.4745C240.455 86.1965 239.084 85.1982 237.775 84.4427C233.296 81.8576 229.568 82.134 226.493 83.9211L209.529 93.779C212.605 91.9915 216.333 91.7156 220.811 94.3006C222.121 95.0562 223.491 96.0544 224.931 97.3325C236.016 107.169 239.879 115.414 232.895 119.472Z" fill="#FFEC92"/>
<path d="M209.527 97.466L217.48 92.8447C218.483 93.1371 219.53 93.58 220.621 94.1933C219.192 96.6754 218.103 99.2328 217.153 101.006L200.189 110.864C202.139 107.225 204.675 100.285 209.527 97.466Z" fill="#BA6B1E"/>
<path d="M164.394 75.7281C174.276 81.4323 184.945 107.922 185.507 109.316C186.236 107.213 188.923 107.639 191.58 109.173C193.826 110.47 196.05 112.557 197.056 114.579C198.418 112.252 204.837 85.0813 220.81 94.3C222.119 95.0556 223.49 96.0538 224.93 97.3319C243.942 114.203 241.709 126.391 199.941 120.808C199.279 120.481 186.692 114.275 183.287 112.308C182.841 112.05 182.564 111.872 182.414 111.729C182.032 111.508 180.565 110.891 178.48 109.915C176.403 108.944 173.712 107.62 170.875 105.982C160.967 100.262 149.263 90.7129 155.561 79.0185C158.065 74.37 161.158 73.8597 164.394 75.7281ZM229.029 104.78C226.078 101.838 223.442 99.7729 221.082 98.4101C207.917 90.8093 203.305 105.049 200.19 110.864C200.291 110.922 199.045 114.375 198.98 114.557L198.875 119.234C201.353 119.478 248.439 124.127 229.029 104.78ZM158.126 93.977C160.842 97.2921 169.631 102.678 175.546 106.093C178.818 107.982 181.091 109.204 181.21 109.268L184.707 111.193L184.223 109.137C183.851 108.23 176.782 90.9905 171.098 84.9014C168.391 82.0015 165.905 79.3559 163.733 78.1016C161.346 76.7232 159.339 77.026 157.836 80.5189C154.968 87.1936 153.905 88.8267 158.126 93.977Z" fill="#E28D1B"/>
<path d="M299.301 220.288L285.889 227.61L285.646 171.7L299.236 164.089L299.301 220.288Z" fill="#FFEC92"/>
</svg>
