<svg width="50" height="50" viewBox="0 0 50 50" fill="none" xmlns="http://www.w3.org/2000/svg">
<path d="M3.125 8.33301V11.458C3.125 20.1038 7.72917 27.6663 14.5833 31.8747V41.6663H45.8333V37.4997C45.8333 31.958 34.7292 29.1663 29.1667 29.1663H28.6458C18.75 29.1663 10.4167 20.833 10.4167 11.458V8.33301H3.125ZM29.1667 8.33301C26.9565 8.33301 24.8369 9.21098 23.2741 10.7738C21.7113 12.3366 20.8333 14.4562 20.8333 16.6663C20.8333 18.8765 21.7113 20.9961 23.2741 22.5589C24.8369 24.1217 26.9565 24.9997 29.1667 24.9997C31.3768 24.9997 33.4964 24.1217 35.0592 22.5589C36.622 20.9961 37.5 18.8765 37.5 16.6663C37.5 14.4562 36.622 12.3366 35.0592 10.7738C33.4964 9.21098 31.3768 8.33301 29.1667 8.33301Z" fill="#1C1D28"/>
</svg>
