<svg width="50" height="50" viewBox="0 0 50 50" fill="none" xmlns="http://www.w3.org/2000/svg">
<g clip-path="url(#clip0_1260_954)">
<path fill-rule="evenodd" clip-rule="evenodd" d="M21.4935 1.45355L17.7269 5.21688C17.4227 5.52115 17.0104 5.69255 16.5802 5.69355H10.6535C7.91355 5.69355 5.69355 7.91355 5.69355 10.6535V16.5802C5.6927 17.0114 5.52135 17.4248 5.21688 17.7302L1.45021 21.4935C0.520391 22.4237 -0.00195313 23.685 -0.00195312 25.0002C-0.00195313 26.3154 0.520391 27.5768 1.45021 28.5069L5.21688 32.2736C5.52115 32.5777 5.69255 32.99 5.69355 33.4202V39.3469C5.69355 42.0869 7.91355 44.3069 10.6535 44.3069H16.5802C17.0114 44.3077 17.4248 44.4791 17.7302 44.7836L21.4935 48.5502C22.4237 49.48 23.685 50.0024 25.0002 50.0024C26.3154 50.0024 27.5768 49.48 28.5069 48.5502L32.2736 44.7836C32.5777 44.4793 32.99 44.3079 33.4202 44.3069H39.3469C42.0869 44.3069 44.3069 42.0869 44.3069 39.3469V33.4202C44.3077 32.989 44.4791 32.5756 44.7836 32.2702L48.5502 28.5069C49.48 27.5768 50.0024 26.3154 50.0024 25.0002C50.0024 23.685 49.48 22.4237 48.5502 21.4935L44.7836 17.7269C44.4793 17.4227 44.3079 17.0104 44.3069 16.5802V10.6535C44.3069 7.91355 42.0869 5.69355 39.3469 5.69355H33.4202C32.9888 5.69343 32.5752 5.52197 32.2702 5.21688L28.5069 1.45021C27.5768 0.520391 26.3154 -0.00195313 25.0002 -0.00195312C23.685 -0.00195313 22.4237 0.520391 21.4935 1.45021V1.45355ZM15.4869 32.1535L32.1535 15.4869L34.5136 17.8469L17.8469 34.5136L15.4869 32.1535ZM16.6669 16.6669V20.0002H20.0002V16.6669H16.6669ZM30.0002 33.3335H33.3335V30.0002H30.0002V33.3335Z" fill="#1C1D28"/>
</g>
<defs>
<clipPath id="clip0_1260_954">
<rect width="50" height="50" fill="white"/>
</clipPath>
</defs>
</svg>
