<svg width="50" height="50" viewBox="0 0 50 50" fill="none" xmlns="http://www.w3.org/2000/svg">
<path d="M24.9993 31.25C21.166 31.25 20.8327 29.4583 20.8327 29.1667H16.666C16.666 31.0833 18.041 34.4792 22.916 35.25V37.5H27.0827V35.25C31.2493 34.5417 33.3327 31.8542 33.3327 29.1667C33.3327 26.8333 32.2494 22.9167 24.9993 22.9167C20.8327 22.9167 20.8327 21.6042 20.8327 20.8333C20.8327 20.0625 22.291 18.75 24.9993 18.75C27.7077 18.75 27.8952 20.0833 27.916 20.8333H32.0827C32.0545 19.4141 31.5441 18.0467 30.6353 16.9562C29.7265 15.8656 28.4736 15.117 27.0827 14.8333V12.5H22.916V14.7708C18.7493 15.4583 16.666 18.1458 16.666 20.8333C16.666 23.1667 17.7493 27.0833 24.9993 27.0833C29.166 27.0833 29.166 28.5 29.166 29.1667C29.166 29.8333 27.8743 31.25 24.9993 31.25Z" fill="#1C1D28"/>
<path d="M10.416 4.16699H4.16602V8.33366H8.33268V43.7503C8.33268 44.3029 8.55218 44.8328 8.94288 45.2235C9.33358 45.6142 9.86348 45.8337 10.416 45.8337H39.5827C40.1352 45.8337 40.6651 45.6142 41.0558 45.2235C41.4465 44.8328 41.666 44.3029 41.666 43.7503V8.33366H45.8327V4.16699H10.416ZM37.4994 41.667H12.4993V8.33366H37.4994V41.667Z" fill="#1C1D28"/>
</svg>
