<svg width="500" height="372" viewBox="0 0 500 372" fill="none" xmlns="http://www.w3.org/2000/svg">
<g clip-path="url(#clip0_1260_760)">
<path opacity="0.4" d="M131.79 367.721L7.12956 295.721C-3.43044 289.631 -2.11043 278.981 10.1296 271.941L311.22 98.101C323.42 91.101 341.86 90.291 352.42 96.391L477.08 168.391C487.64 174.491 486.31 185.141 474.08 192.181L173 366.001C160.79 373.051 142.35 373.811 131.79 367.721Z" fill="#D6D8E5"/>
<path d="M147.579 358.241L22.9192 286.241C12.3592 280.141 13.6892 269.491 25.9192 262.451L326.999 88.6213C339.199 81.6213 357.639 80.8213 368.199 86.9113L492.859 158.911C503.419 165.001 502.099 175.651 489.859 182.691L188.779 356.531C176.579 363.571 158.139 364.341 147.579 358.241Z" fill="#B1B4C4"/>
<path d="M15.79 275.791V264.311L29.25 269.391L15.79 275.791Z" fill="#B1B4C4"/>
<path d="M500 168.831V157.791L489.29 164.691L500 168.831Z" fill="#B1B4C4"/>
<path d="M147.579 348.531L22.9192 276.531C12.3592 270.441 13.6892 259.791 25.9192 252.751L326.999 78.9105C339.199 71.9105 357.639 71.1005 368.199 77.2005L492.859 149.201C503.419 155.301 502.099 165.951 489.859 172.991L188.779 346.821C176.579 353.861 158.139 354.621 147.579 348.531Z" fill="#616E84"/>
<path d="M37.9666 291.294C38.6075 290.924 38.6099 289.728 37.972 288.623C37.3342 287.519 36.2975 286.923 35.6566 287.293C35.0157 287.663 35.0132 288.859 35.6511 289.963C36.289 291.068 37.3257 291.664 37.9666 291.294Z" fill="#757B89"/>
<path d="M43.9627 294.761C44.6036 294.391 44.606 293.195 43.9681 292.09C43.3302 290.985 42.2936 290.39 41.6527 290.76C41.0117 291.13 41.0093 292.325 41.6472 293.43C42.2851 294.535 43.3217 295.131 43.9627 294.761Z" fill="#757B89"/>
<path d="M49.9744 298.226C50.6153 297.856 50.6177 296.66 49.9799 295.555C49.342 294.45 48.3053 293.855 47.6644 294.225C47.0235 294.595 47.021 295.79 47.6589 296.895C48.2968 298 49.3335 298.596 49.9744 298.226Z" fill="#757B89"/>
<path d="M55.9705 301.691C56.6114 301.321 56.6138 300.126 55.9759 299.021C55.3381 297.916 54.3014 297.32 53.6605 297.69C53.0196 298.06 53.0171 299.256 53.655 300.361C54.2929 301.466 55.3296 302.061 55.9705 301.691Z" fill="#757B89"/>
<path d="M107.915 332.755C108.559 332.385 108.564 331.185 107.926 330.075C107.288 328.965 106.249 328.365 105.605 328.735C104.961 329.105 104.957 330.305 105.594 331.415C106.232 332.525 107.271 333.125 107.915 332.755Z" fill="#757B89"/>
<path d="M113.489 334.902C114.13 334.532 114.132 333.337 113.495 332.232C112.857 331.127 111.82 330.531 111.179 330.901C110.538 331.271 110.536 332.467 111.174 333.572C111.811 334.677 112.848 335.272 113.489 334.902Z" fill="#757B89"/>
<path d="M119.49 338.367C120.131 337.997 120.133 336.802 119.495 335.697C118.858 334.592 117.821 333.996 117.18 334.366C116.539 334.736 116.537 335.932 117.175 337.037C117.812 338.142 118.849 338.737 119.49 338.367Z" fill="#757B89"/>
<path d="M125.486 341.834C126.127 341.464 126.129 340.268 125.492 339.163C124.854 338.059 123.817 337.463 123.176 337.833C122.535 338.203 122.533 339.399 123.171 340.503C123.809 341.608 124.845 342.204 125.486 341.834Z" fill="#757B89"/>
<path d="M88.8192 321.83L72.3392 312.32C71.7635 311.909 71.2926 311.367 70.9643 310.74C70.6361 310.113 70.4596 309.418 70.4492 308.71C70.4492 307.31 71.2892 306.71 72.3392 307.28L88.8192 316.79C89.3957 317.204 89.867 317.747 90.1953 318.375C90.5236 319.004 90.6996 319.701 90.7092 320.41C90.7092 321.8 89.8692 322.44 88.8192 321.83Z" fill="#757B89"/>
<path d="M462.27 196.151L446.94 205.001C445.94 205.561 445.18 205.001 445.18 203.671C445.19 203.014 445.355 202.368 445.661 201.786C445.967 201.204 446.405 200.702 446.94 200.321L462.27 191.471C463.27 190.911 464.02 191.471 464.02 192.801C464.011 193.457 463.848 194.102 463.544 194.684C463.24 195.266 462.803 195.768 462.27 196.151Z" fill="#757B89"/>
<path d="M438.789 209.711L423.459 218.561C422.459 219.121 421.699 218.561 421.699 217.231C421.71 216.572 421.875 215.926 422.18 215.342C422.486 214.759 422.924 214.255 423.459 213.871L438.789 205.001C439.789 204.441 440.539 205.001 440.539 206.331C440.534 206.992 440.373 207.643 440.069 208.231C439.765 208.818 439.326 209.325 438.789 209.711Z" fill="#757B89"/>
<path d="M147.579 346.761L22.9192 274.761C12.3592 268.661 13.6892 258.011 25.9192 250.971L326.999 77.1408C339.199 70.1408 357.639 69.3408 368.199 75.4308L492.859 147.431C503.419 153.521 502.099 164.171 489.859 171.211L188.779 345.051C176.579 352.091 158.139 352.861 147.579 346.761Z" fill="#20232D"/>
<path d="M479.49 150.281L430.82 122.181L430.7 122.251C424.95 125.571 415.63 125.571 409.88 122.251C404.13 118.931 404.13 113.541 409.88 110.251L410 110.191L361.33 82.0912C353.94 77.8212 341.95 77.8212 334.56 82.0912L41.27 251.391C33.88 255.651 33.88 262.571 41.27 266.841L159.42 335.061C166.82 339.331 178.8 339.331 186.19 335.061L479.49 165.731C486.88 161.461 486.88 154.541 479.49 150.281Z" fill="white"/>
<path opacity="0.5" d="M479.489 165.73L186.199 335.06C179.519 338.92 169.069 339.28 161.669 336.16C160.902 335.844 160.157 335.477 159.439 335.06L41.2791 266.84C39.6456 265.964 38.2279 264.734 37.1291 263.24C34.3391 259.24 35.7191 254.59 41.2791 251.39L334.559 82.0505C341.949 77.7905 353.929 77.7905 361.329 82.0505L409.999 110.16L409.879 110.23C404.129 113.55 404.129 118.92 409.879 122.23C415.629 125.54 424.959 125.56 430.699 122.23L430.809 122.17L479.489 150.27C486.879 154.55 486.879 161.46 479.489 165.73Z" fill="url(#paint0_linear_1260_760)"/>
<path d="M417.09 121.311C420.177 121.311 422.68 119.864 422.68 118.081C422.68 116.297 420.177 114.851 417.09 114.851C414.003 114.851 411.5 116.297 411.5 118.081C411.5 119.864 414.003 121.311 417.09 121.311Z" fill="#2B303F"/>
<path opacity="0.1" d="M415.44 119.001C415.232 118.94 415.05 118.814 414.92 118.641C414.79 118.468 414.72 118.257 414.72 118.041C414.72 117.825 414.79 117.614 414.92 117.441C415.05 117.268 415.232 117.142 415.44 117.081C415.954 116.825 416.52 116.691 417.095 116.691C417.669 116.691 418.236 116.825 418.75 117.081C418.957 117.142 419.14 117.268 419.27 117.441C419.4 117.614 419.47 117.825 419.47 118.041C419.47 118.257 419.4 118.468 419.27 118.641C419.14 118.814 418.957 118.94 418.75 119.001C418.236 119.257 417.669 119.391 417.095 119.391C416.52 119.391 415.954 119.257 415.44 119.001Z" fill="white"/>
<path d="M355.429 212.24L251.119 152C245.059 148.5 245.819 142.39 252.819 138.35L322.999 97.8502C329.999 93.8502 340.599 93.3602 346.659 96.8502L450.999 157.09C457.059 160.59 456.299 166.7 449.299 170.75L379.129 211.26C372.079 215.3 361.489 215.74 355.429 212.24Z" fill="#E9EAF2"/>
<path d="M358.769 142.29L321.209 148.1L327.239 135.11L268.359 144.22L284.819 153.72L311.459 169.1L338.959 184.98L358.769 142.29Z" fill="#DADCE5"/>
<path d="M407.029 171.651C417.318 171.651 425.659 166.833 425.659 160.891C425.659 154.948 417.318 150.131 407.029 150.131C396.74 150.131 388.399 154.948 388.399 160.891C388.399 166.833 396.74 171.651 407.029 171.651Z" fill="#DADCE5"/>
<path d="M248.929 273.72L144.619 213.5C138.559 210 139.319 203.89 146.319 199.84L216.479 159.33C223.479 155.33 234.079 154.85 240.139 158.33L344.449 218.55C350.509 222.06 349.749 228.17 342.749 232.21L272.579 272.72C265.579 276.79 254.999 277.22 248.929 273.72Z" fill="#E9EAF2"/>
<path d="M236.25 293.721L166.08 334.221C164.685 335.026 163.206 335.676 161.67 336.161C160.903 335.845 160.158 335.477 159.44 335.061L41.2799 266.841C39.6463 265.964 38.2286 264.734 37.1299 263.241C37.96 262.515 38.8613 261.875 39.8199 261.331L110 220.821C117 216.821 127.6 216.341 133.66 219.821L238 280.061C244 283.561 243.25 289.671 236.25 293.721Z" fill="#E9EAF2"/>
<path d="M145.769 265.26L108.209 271.07L114.239 258.08L55.3594 267.19L71.8294 276.7L98.4594 292.08L125.959 307.95L145.769 265.26Z" fill="#DADCE5"/>
<path d="M194.029 294.63C204.318 294.63 212.659 289.813 212.659 283.87C212.659 277.928 204.318 273.11 194.029 273.11C183.74 273.11 175.399 277.928 175.399 283.87C175.399 289.813 183.74 294.63 194.029 294.63Z" fill="#DADCE5"/>
<path d="M437.13 141.351L435.02 140.131L438.55 138.091L440.66 139.311L437.13 141.351Z" fill="#E9EAF2"/>
<path d="M439.96 142.98L437.84 141.76L442.78 138.91L444.9 140.13L439.96 142.98Z" fill="#E9EAF2"/>
<path d="M442.779 144.611L440.659 143.391L447.719 139.311L449.839 140.531L442.779 144.611Z" fill="#E9EAF2"/>
<path d="M445.599 146.241L443.489 145.021L453.369 139.311L455.489 140.531L445.599 146.241Z" fill="#E9EAF2"/>
<path d="M454.779 151.54L451.489 149.64L458.069 145.83L461.369 147.73L454.779 151.54Z" fill="#E9EAF2"/>
<path d="M459.17 154.07L455.88 152.17L462.47 148.37L465.76 150.27L459.17 154.07Z" fill="#E9EAF2"/>
<path d="M463.56 156.61L460.27 154.71L466.86 150.9L470.15 152.81L463.56 156.61Z" fill="#E9EAF2"/>
<path d="M304.319 61.0605L201.139 1.49047C198.339 -0.119526 195.799 -0.379526 193.859 0.490474C193.591 0.611915 193.333 0.755757 193.089 0.920474L182.319 6.92047L190.159 17.9205V95.7805C190.159 102.78 195.079 111.3 201.159 114.78L241.579 138.11L246.499 150.8L241.339 173.25L252.749 166.91L263.899 151L298.899 171.22L300.129 181.71L311.429 175.41C313.779 174.41 315.279 171.86 315.279 168V80.0805C315.299 73.0805 310.389 64.5605 304.319 61.0605Z" fill="#EDEEF7"/>
<path d="M292.91 67.4006L189.729 7.83062C183.669 4.33062 178.729 7.17062 178.729 14.1706V102.171C178.729 109.171 183.649 117.691 189.729 121.171L230.149 144.501L241.32 173.301L252.49 157.401L292.91 180.741C298.979 184.241 303.91 181.401 303.91 174.401V86.4206C303.89 79.4206 298.999 70.9006 292.91 67.4006Z" fill="#F8F9FF"/>
<path d="M263.28 96.4201C262.62 87.6801 257.49 78.6501 251.08 74.9401C246.81 72.4801 242.89 72.8701 240.69 75.8601C238.51 70.2901 234.76 65.5201 230.55 63.0901C224.14 59.3901 219.01 62.5001 218.35 70.4801C218.187 72.3888 218.319 74.3113 218.74 76.1801C219.85 81.73 221.972 87.0283 225 91.8101L240.7 117.33L256.7 110.1C259.85 108.62 262.01 105.71 262.94 101.68C263.347 99.9582 263.462 98.1801 263.28 96.4201Z" fill="#4E7FFF"/>
<path opacity="0.05" d="M243.829 229.571C260.84 229.571 274.629 221.61 274.629 211.791C274.629 201.971 260.84 194.011 243.829 194.011C226.819 194.011 213.029 201.971 213.029 211.791C213.029 221.61 226.819 229.571 243.829 229.571Z" fill="black"/>
</g>
<defs>
<linearGradient id="paint0_linear_1260_760" x1="260.379" y1="338.26" x2="260.379" y2="78.8605" gradientUnits="userSpaceOnUse">
<stop offset="0.21" stop-color="white" stop-opacity="0"/>
<stop offset="1" stop-color="white" stop-opacity="0.2"/>
</linearGradient>
<clipPath id="clip0_1260_760">
<rect width="500" height="371.83" fill="white"/>
</clipPath>
</defs>
</svg>
