<svg width="63" height="50" viewBox="0 0 63 50" fill="none" xmlns="http://www.w3.org/2000/svg">
<g clip-path="url(#clip0_1260_947)">
<path d="M59.375 6.25H3.125C1.39941 6.25 0 7.64941 0 9.375V40.625C0 42.3506 1.39941 43.75 3.125 43.75H59.375C61.1006 43.75 62.5 42.3506 62.5 40.625V9.375C62.5 7.64941 61.1006 6.25 59.375 6.25ZM4.6875 39.0625V32.8125C8.13965 32.8125 10.9375 35.6104 10.9375 39.0625H4.6875ZM4.6875 17.1875V10.9375H10.9375C10.9375 14.3896 8.13965 17.1875 4.6875 17.1875ZM31.25 34.375C26.9346 34.375 23.4375 30.1768 23.4375 25C23.4375 19.8223 26.9355 15.625 31.25 15.625C35.5645 15.625 39.0625 19.8223 39.0625 25C39.0625 30.1787 35.5635 34.375 31.25 34.375ZM57.8125 39.0625H51.5625C51.5625 35.6104 54.3604 32.8125 57.8125 32.8125V39.0625ZM57.8125 17.1875C54.3604 17.1875 51.5625 14.3896 51.5625 10.9375H57.8125V17.1875Z" fill="#1C1D28"/>
</g>
<defs>
<clipPath id="clip0_1260_947">
<rect width="62.5" height="50" fill="white"/>
</clipPath>
</defs>
</svg>
