<svg width="9" height="15" viewBox="0 0 9 15" fill="none" xmlns="http://www.w3.org/2000/svg">
<path d="M8.06086 6.14413L2.31742 0.400684C2.19149 0.273721 2.04167 0.172947 1.8766 0.104177C1.71153 0.0354062 1.53448 0 1.35566 0C1.17684 0 0.999786 0.0354062 0.834717 0.104177C0.669648 0.172947 0.51983 0.273721 0.393903 0.400684C0.14161 0.654483 0 0.997805 0 1.35567C0 1.71353 0.14161 2.05685 0.393903 2.31065L5.18914 7.10588L0.393903 11.9011C0.14161 12.1549 0 12.4982 0 12.8561C0 13.214 0.14161 13.5573 0.393903 13.8111C0.520476 13.9366 0.670586 14.036 0.835625 14.1034C1.00066 14.1708 1.17739 14.2049 1.35566 14.2039C1.53393 14.2049 1.71065 14.1708 1.87569 14.1034C2.04073 14.036 2.19084 13.9366 2.31742 13.8111L8.06086 8.06764C8.18782 7.94171 8.2886 7.79189 8.35737 7.62683C8.42614 7.46176 8.46154 7.2847 8.46154 7.10588C8.46154 6.92706 8.42614 6.75001 8.35737 6.58494C8.2886 6.41987 8.18782 6.27005 8.06086 6.14413Z" fill="#8B8B8B"/>
</svg>
