<svg width="50" height="50" viewBox="0 0 50 50" fill="none" xmlns="http://www.w3.org/2000/svg">
<path d="M34.8962 8.33301C36.0839 8.33286 37.2275 8.78362 38.0956 9.59419C38.9638 10.4048 39.492 11.5147 39.5732 12.6997L39.5837 13.0205V36.458C39.5832 36.7183 39.6802 36.9694 39.8556 37.1617C40.0309 37.3541 40.272 37.4738 40.5312 37.4973C40.7904 37.5208 41.0491 37.4465 41.2562 37.2888C41.4634 37.1311 41.604 36.9016 41.6503 36.6455L41.667 36.458V14.6122C42.7544 14.7338 43.765 15.2319 44.5237 16.0203C45.2824 16.8086 45.7414 17.8376 45.8212 18.9288L45.8337 19.2705V34.8955C45.8338 36.625 45.1721 38.2889 43.9843 39.546C42.7966 40.8031 41.1728 41.558 39.4462 41.6559L39.0628 41.6663H10.9378C9.20837 41.6665 7.54443 41.0048 6.28734 39.817C5.03026 38.6293 4.27532 37.0055 4.17741 35.2788L4.16699 34.8955V13.0205C4.16685 11.8327 4.61761 10.6892 5.42818 9.82102C6.23875 8.95283 7.34868 8.42472 8.53366 8.34342L8.85449 8.33301H34.8962ZM19.267 22.9163H11.9753C11.5609 22.9163 11.1635 23.081 10.8705 23.374C10.5774 23.667 10.4128 24.0644 10.4128 24.4788V31.7705C10.4128 32.633 11.1128 33.333 11.9753 33.333H19.267C19.6814 33.333 20.0788 33.1684 20.3718 32.8754C20.6649 32.5823 20.8295 32.1849 20.8295 31.7705V24.4788C20.8295 24.0644 20.6649 23.667 20.3718 23.374C20.0788 23.081 19.6814 22.9163 19.267 22.9163ZM31.7753 30.208H26.5712L26.3587 30.2226C25.9665 30.2765 25.6094 30.4774 25.3596 30.7845C25.1097 31.0916 24.9858 31.482 25.0128 31.877C25.0398 32.272 25.2157 32.642 25.5049 32.9122C25.7942 33.1825 26.1753 33.3329 26.5712 33.333H31.7753L31.9878 33.3184C32.38 33.2645 32.7371 33.0636 32.9869 32.7565C33.2368 32.4494 33.3607 32.059 33.3337 31.664C33.3067 31.269 33.1308 30.899 32.8416 30.6288C32.5523 30.3585 32.1712 30.2081 31.7753 30.208ZM17.7045 26.0413V30.208H13.5378V26.0413H17.7045ZM31.7712 22.9163L26.567 22.9268L26.3545 22.9393C25.9585 22.9894 25.5967 23.1891 25.3433 23.4976C25.09 23.806 24.9642 24.1997 24.992 24.5979C25.0197 24.9961 25.1987 25.3686 25.4924 25.6389C25.7861 25.9093 26.172 26.057 26.5712 26.0518L31.7774 26.0413L31.9878 26.0268C32.3802 25.9728 32.7374 25.7718 32.9873 25.4645C33.2371 25.1572 33.3609 24.7664 33.3336 24.3713C33.3064 23.9762 33.1301 23.6061 32.8404 23.336C32.5507 23.0659 32.1693 22.9159 31.7732 22.9163H31.7712ZM31.7732 15.633H11.9753L11.7628 15.6476C11.3706 15.7016 11.0136 15.9024 10.7637 16.2095C10.5139 16.5166 10.39 16.907 10.4169 17.302C10.4439 17.697 10.6198 18.067 10.9091 18.3372C11.1984 18.6075 11.5794 18.7579 11.9753 18.758H31.7753L31.9878 18.7455C32.3834 18.6953 32.7448 18.4958 32.998 18.1879C33.2513 17.8799 33.3772 17.4868 33.3501 17.089C33.3229 16.6912 33.1447 16.3188 32.852 16.0482C32.5592 15.7775 32.174 15.629 31.7753 15.633H31.7732Z" fill="#1C1D28"/>
</svg>
