<svg width="41" height="41" viewBox="0 0 41 41" fill="none" xmlns="http://www.w3.org/2000/svg">
<path d="M36.2204 11.3544C36.458 10.573 36.2204 10 35.0972 10H31.3763C30.4295 10 29.9968 10.4957 29.7593 11.0402C29.7593 11.0402 27.8674 15.6091 25.1866 18.5717C24.3212 19.4337 23.9259 19.7059 23.4542 19.7059C23.2183 19.7059 22.8756 19.4337 22.8756 18.6523V11.3544C22.8756 10.4167 22.6024 10 21.8134 10H15.9665C15.376 10 15.0197 10.4335 15.0197 10.8469C15.0197 11.7342 16.3601 11.9392 16.4976 14.4396V19.8639C16.4976 21.0519 16.2821 21.2687 15.807 21.2687C14.5463 21.2687 11.4786 16.6829 9.658 11.4334C9.30338 10.4134 8.94537 10.0017 7.9952 10.0017H4.27595C3.21209 10.0017 3 10.4974 3 11.0418C3 12.0198 4.26068 16.8594 8.87241 23.26C11.9469 27.6306 16.2753 30 20.2185 30C22.5821 30 22.8739 29.474 22.8739 28.5666V25.263C22.8739 24.2111 23.0996 23.9993 23.8478 23.9993C24.3976 23.9993 25.3443 24.2749 27.5518 26.3804C30.0732 28.8775 30.4906 29.9983 31.9073 29.9983H35.6266C36.6887 29.9983 37.2198 29.4724 36.9144 28.4339C36.5802 27.4004 35.3755 25.8965 33.7771 24.117C32.9084 23.102 31.6104 22.0097 31.2151 21.4636C30.6636 20.7595 30.8231 20.4487 31.2151 19.8236C31.2168 19.8252 35.7488 13.5036 36.2204 11.3544V11.3544Z" fill="#333333"/>
</svg>
