<svg width="50" height="50" viewBox="0 0 50 50" fill="none" xmlns="http://www.w3.org/2000/svg">
<path d="M34.0837 29.167C34.2503 27.792 34.3753 26.417 34.3753 25.0003C34.3753 23.5837 34.2503 22.2087 34.0837 20.8337H41.1253C41.4587 22.167 41.667 23.5628 41.667 25.0003C41.667 26.4378 41.4587 27.8337 41.1253 29.167H34.0837ZM30.3962 40.7503C31.6462 38.4378 32.6045 35.9378 33.2712 33.3337H39.417C37.3986 36.8092 34.1964 39.442 30.3962 40.7503ZM29.8753 29.167H20.1253C19.917 27.792 19.792 26.417 19.792 25.0003C19.792 23.5837 19.917 22.1878 20.1253 20.8337H29.8753C30.0628 22.1878 30.2087 23.5837 30.2087 25.0003C30.2087 26.417 30.0628 27.792 29.8753 29.167ZM25.0003 41.5837C23.2712 39.0837 21.8753 36.3128 21.0212 33.3337H28.9795C28.1253 36.3128 26.7295 39.0837 25.0003 41.5837ZM16.667 16.667H10.5837C12.5813 13.182 15.7811 10.5451 19.5837 9.25033C18.3337 11.5628 17.3962 14.0628 16.667 16.667ZM10.5837 33.3337H16.667C17.3962 35.9378 18.3337 38.4378 19.5837 40.7503C15.7891 39.4413 12.5938 36.8081 10.5837 33.3337ZM8.87533 29.167C8.54199 27.8337 8.33366 26.4378 8.33366 25.0003C8.33366 23.5628 8.54199 22.167 8.87533 20.8337H15.917C15.7503 22.2087 15.6253 23.5837 15.6253 25.0003C15.6253 26.417 15.7503 27.792 15.917 29.167H8.87533ZM25.0003 8.39616C26.7295 10.8962 28.1253 13.6878 28.9795 16.667H21.0212C21.8753 13.6878 23.2712 10.8962 25.0003 8.39616ZM39.417 16.667H33.2712C32.6191 14.0867 31.6536 11.5959 30.3962 9.25033C34.2295 10.5628 37.417 13.2087 39.417 16.667ZM25.0003 4.16699C13.4795 4.16699 4.16699 13.542 4.16699 25.0003C4.16699 30.5257 6.36193 35.8247 10.2689 39.7317C12.2035 41.6663 14.5001 43.2008 17.0278 44.2478C19.5554 45.2948 22.2645 45.8337 25.0003 45.8337C30.5257 45.8337 35.8247 43.6387 39.7317 39.7317C43.6387 35.8247 45.8337 30.5257 45.8337 25.0003C45.8337 22.2645 45.2948 19.5554 44.2478 17.0278C43.2008 14.5001 41.6663 12.2035 39.7317 10.2689C37.7972 8.33438 35.5005 6.79981 32.9729 5.75284C30.4453 4.70586 27.7362 4.16699 25.0003 4.16699Z" fill="#1C1D28"/>
</svg>
