<svg width="171" height="43" viewBox="0 0 171 43" fill="none" xmlns="http://www.w3.org/2000/svg">
<path d="M54.6385 33H62.7937C70.6063 33 75.335 28.0315 75.335 20.8699C75.335 13.6741 70.4007 8.67133 62.6909 8.67133H54.6385V33ZM59.4014 28.7168V12.9545H62.7594C67.1797 12.9545 70.2979 16.3126 70.2979 20.8699C70.2979 25.3245 67.214 28.7168 62.4853 28.7168H59.4014ZM90.9786 33.3084C98.1059 33.3084 103.349 28.2371 103.349 20.8357C103.349 13.4 98.1059 8.36293 90.9786 8.36293C83.6115 8.36293 78.5744 13.6056 78.5744 20.8357C78.5744 28.0657 83.6115 33.3084 90.9786 33.3084ZM90.9786 28.7853C86.5926 28.7853 83.5772 25.2559 83.5772 20.8357C83.5772 16.4154 86.5926 12.886 90.9786 12.886C95.159 12.886 98.3115 16.2441 98.3115 20.8357C98.3115 25.4273 95.159 28.7853 90.9786 28.7853ZM107.643 33H112.406V24.6734H115.182L120.63 33H126.352L120.253 24.0909C123.611 22.9944 125.324 20.4587 125.324 16.758C125.324 12.0979 122.72 8.67133 116.861 8.67133H107.643V33ZM112.406 20.4245V12.9545H116.107C118.882 12.9545 120.356 14.428 120.356 16.6895C120.356 18.9168 118.848 20.4245 115.901 20.4245H112.406ZM128.006 33H133.044L134.688 28.1343H144.009L145.688 33H150.725L141.679 8.67133H137.018L128.006 33ZM136.059 24.0224L139.314 14.4965H139.383L142.638 24.0224H136.059ZM161.221 33.3084C165.162 33.3084 169.856 31.1154 169.856 25.7699C169.856 21.0755 166.498 19.979 162.284 18.3343C159.474 17.2378 158.172 16.621 158.172 15.1133C158.206 13.5713 159.44 12.6804 161.119 12.6804C162.626 12.6804 164.408 13.4343 166.43 15.079L169.24 11.4469C166.807 9.45944 164.031 8.36293 161.016 8.36293C156.664 8.3972 153.203 11.4126 153.203 15.3189C153.203 19.9448 156.87 21.6238 160.57 22.8916C163.517 23.9196 164.785 24.5706 164.785 26.3524C164.785 27.8601 163.654 28.9224 161.324 28.9224C159.405 28.9224 157.075 27.9287 155.259 25.8727L152.347 29.4364C154.917 32.0748 158.103 33.3084 161.221 33.3084Z" fill="#17181C"/>
<g clip-path="url(#clip0_2465_254)">
<path d="M15.1394 31.5152C6.42588 22.8017 2.2291 12.8713 5.76554 9.33486C9.03689 6.06351 17.7791 9.41281 25.9687 16.83C25.3363 16.1151 24.6739 15.4065 23.9768 14.7094C17.0491 7.78166 9.04226 3.97889 3.82936 4.66154C1.86773 4.91832 0.335455 6.4506 0.0785293 8.41223C-0.604118 13.6251 3.19873 21.6319 10.1265 28.5597C12.5975 31.0307 15.2055 33.103 17.7752 34.7165C18.0667 34.8995 18.3653 34.4933 18.1044 34.2688C17.108 33.411 16.116 32.4919 15.1394 31.5152Z" fill="#B1CEF0"/>
<path d="M20.5558 9.52366C29.2693 18.2372 33.466 28.1677 29.9297 31.704C26.6583 34.9754 17.9161 31.6261 9.72656 24.2088C10.3589 24.9238 11.0213 25.6324 11.7184 26.3294C18.6462 33.2572 26.653 37.0601 31.8659 36.3774C33.8275 36.1205 35.3598 34.5883 35.6165 32.6267C36.2992 27.4138 32.4963 19.407 25.5686 12.4792C23.0976 10.0082 20.4895 7.93595 17.9199 6.32245C17.6284 6.13943 17.3298 6.54563 17.5906 6.7702C18.5872 7.62792 19.5792 8.547 20.5558 9.52366Z" fill="#B1CEF0"/>
<path d="M11.659 25.8057L5.28439 32.1803C5.03541 32.4292 5.03541 32.8327 5.28439 33.0817C5.40884 33.2062 5.57199 33.2684 5.73507 33.2684C5.89815 33.2684 6.0613 33.2062 6.18575 33.0816L12.5604 26.707L11.659 25.8057Z" fill="#B1CEF0"/>
<path d="M11.7931 26.5756C18.4821 33.2647 26.6159 35.9759 29.9604 32.6314C33.3049 29.2869 30.5936 21.1531 23.9046 14.4641C17.2155 7.77506 9.08172 5.0638 5.73722 8.40832C2.39272 11.7528 5.10402 19.8866 11.7931 26.5756Z" fill="#4E80FF"/>
<path d="M13.3841 24.9825C18.3482 29.9467 24.3704 31.9731 26.8349 29.5086C29.2994 27.0441 27.273 21.0219 22.3088 16.0578C17.3446 11.0936 11.3224 9.06721 8.85795 11.5317C6.39345 13.9962 8.41986 20.0184 13.3841 24.9825Z" fill="#55719B"/>
<path d="M14.9787 23.3884C18.0556 26.4653 21.8343 27.6753 23.4185 26.0911C25.0028 24.5068 23.7927 20.7282 20.7158 17.6513C17.6389 14.5744 13.8602 13.3644 12.276 14.9486C10.6917 16.5329 11.9018 20.3115 14.9787 23.3884Z" fill="#415F8C"/>
<path d="M30.4126 7.95724C30.1636 7.70826 29.7602 7.70826 29.5112 7.95724L20.8507 16.6177C20.6018 16.8666 20.6018 17.2702 20.8507 17.5191C21.0997 17.768 21.5033 17.768 21.7522 17.5191L30.4126 8.85861C30.6616 8.60963 30.6616 8.20629 30.4126 7.95724Z" fill="#B1CAF0"/>
<path d="M23.4006 14.9699C23.1516 14.721 22.7482 14.721 22.4992 14.9699L20.8507 16.6184C20.6018 16.8673 20.6018 17.2709 20.8507 17.5198C21.0997 17.7687 21.5033 17.7687 21.7522 17.5198L23.4006 15.8714C23.6497 15.6223 23.6497 15.2189 23.4006 14.9699Z" fill="white"/>
<path d="M19.7623 18.6075C18.2572 17.1023 16.3236 16.5956 15.4436 17.4756C14.5636 18.3556 15.0704 20.2891 16.5755 21.7943C18.0806 23.2994 20.0142 23.8061 20.8942 22.9261C21.7742 22.0461 21.2674 20.1126 19.7623 18.6075Z" fill="#233964"/>
</g>
<defs>
<clipPath id="clip0_2465_254">
<rect width="35.6976" height="35.6976" fill="white" transform="translate(0 2.6709)"/>
</clipPath>
</defs>
</svg>
