<svg width="575" height="318" viewBox="0 0 575 318" fill="none" xmlns="http://www.w3.org/2000/svg">
<path d="M241 240L241 206.796C241 202.93 244.134 199.796 248 199.796V199.796C251.866 199.796 255 202.93 255 206.796L255 240L241 240Z" fill="url(#paint0_linear_2475_2395)"/>
<path d="M207 240L207 94C207 90.134 210.134 87 214 87V87C217.866 87 221 90.134 221 94L221 240L207 240Z" fill="url(#paint1_linear_2475_2395)"/>
<path d="M173 240L173 130.854C173 126.988 176.134 123.854 180 123.854V123.854C183.866 123.854 187 126.988 187 130.854L187 240L173 240Z" fill="url(#paint2_linear_2475_2395)"/>
<path d="M139 240L139 159.891C139 156.025 142.134 152.891 146 152.891V152.891C149.866 152.891 153 156.025 153 159.891L153 240L139 240Z" fill="url(#paint3_linear_2475_2395)"/>
<path d="M105 240L105 108.518C105 104.652 108.134 101.518 112 101.518V101.518C115.866 101.518 119 104.652 119 108.518L119 240L105 240Z" fill="url(#paint4_linear_2475_2395)"/>
<path d="M71 240L71 176.642C71 172.776 74.134 169.642 78 169.642V169.642C81.866 169.642 85 172.776 85 176.642L85 240L71 240Z" fill="url(#paint5_linear_2475_2395)"/>
<path d="M37 240L37 147.606C37 143.74 40.134 140.606 44 140.606V140.606C47.866 140.606 51 143.74 51 147.606L51 240L37 240Z" fill="url(#paint6_linear_2475_2395)"/>
<circle cx="291" cy="126" r="126" transform="rotate(-90 291 126)" fill="#EFF4FB"/>
<path d="M291 4.80405e-05C316.602 5.1601e-05 341.597 7.79921 362.656 22.359C383.715 36.9188 399.839 57.5483 408.88 81.5006C417.922 105.453 419.453 131.591 413.269 156.435C407.085 181.279 393.479 203.65 374.264 220.568C355.048 237.487 331.135 248.15 305.708 251.139C280.281 254.127 254.547 249.299 231.932 237.297C209.318 225.295 190.896 206.688 179.12 183.955C167.344 161.222 162.772 135.441 166.014 110.045L291 126L291 4.80405e-05Z" fill="#6AA6FF"/>
<path d="M291 4.80405e-05C310.411 5.07401e-05 329.56 4.48498 346.953 13.1049C364.345 21.7249 379.511 34.2468 391.266 49.6936C403.022 65.1404 411.05 83.0945 414.723 102.155C418.397 121.216 417.617 140.867 412.444 159.577C407.271 178.286 397.846 195.547 384.903 210.014C371.96 224.48 355.849 235.761 337.828 242.975C319.807 250.189 300.363 253.142 281.013 251.604C261.663 250.065 242.93 244.076 226.275 234.105L291 126L291 4.80405e-05Z" fill="#1859FF"/>
<rect y="213" width="245" height="105" rx="6.77419" fill="#1E1F25"/>
<path d="M31.6059 272.061C35.8596 272.061 38.9955 270.291 38.9955 265.603C38.9955 261.784 36.76 258.928 31.7612 258.928H24.2785V269.391H22.0741V272.061H24.2785V273.8H22.0741V276.346H24.2785V280.258H28.5943V276.346H35.6422V273.8H28.5943V272.061H31.6059ZM28.5322 262.809H31.2023C33.3757 262.809 34.4934 264.051 34.4934 265.913C34.4934 267.559 33.4689 268.894 31.2023 268.894H28.5322V262.809ZM53.6721 280.258H57.9258V258.928H54.5415L48.1145 263.554L50.1016 266.69L53.6721 263.988V280.258ZM70.1651 280.258H74.3256V276.749H77.1821V273.148H74.3256V258.928H70.9413L61.1611 274.079V276.749H70.1651V280.258ZM65.7563 273.334L70.4446 265.758V273.334H65.7563ZM78.7738 258.928V262.747H87.4052L80.4193 279.947L84.6419 280.724L92.0625 261.691V258.928H78.7738ZM92.1777 284.387H95.1273L97.3317 276.284H93.1402L92.1777 284.387ZM107.212 280.537C111.341 280.537 114.415 278.147 114.415 274.452C114.415 271.968 113.08 270.198 111.031 269.267V269.174C112.769 268.149 113.794 266.441 113.794 264.392C113.794 260.759 110.72 258.679 106.932 258.679C103.796 258.679 101.344 260.263 100.35 262.467L103.734 264.299C104.355 263.212 105.256 262.498 106.839 262.498C108.392 262.498 109.633 263.554 109.633 265.075C109.633 266.441 108.795 267.59 106.901 267.59H105.038V271.005H106.529C108.888 271.005 110.068 272.34 110.068 273.893C110.068 275.632 108.64 276.718 106.901 276.718C104.976 276.718 103.796 275.818 103.206 274.297L99.5738 275.818C100.598 278.519 103.424 280.537 107.212 280.537ZM116.961 280.258H130.839V276.439H123.17L123.139 276.346L127.113 272.185C129.877 269.329 130.653 267.435 130.653 265.013C130.653 261.07 127.424 258.71 123.853 258.71C120.283 258.71 118.047 260.48 116.805 262.747L119.817 264.889C120.749 263.336 122.022 262.622 123.543 262.622C125.188 262.622 126.368 263.864 126.368 265.51C126.368 267.217 125.251 268.646 123.512 270.447L116.899 277.495L116.961 280.258ZM141.692 280.258H145.852V276.749H148.709V273.148H145.852V258.928H142.468L132.688 274.079V276.749H141.692V280.258ZM137.283 273.334L141.971 265.758V273.334H137.283Z" fill="white"/>
<path d="M22.2624 242.887H24.5785C26.2714 242.887 26.9504 242.115 26.9504 240.757C26.9504 239.659 26.383 238.794 24.5878 238.794H23.3879V237.287H26.4481V236.283H22.2624V242.887ZM23.3879 241.882V239.78H24.5878C25.3319 239.78 25.7877 240.096 25.7877 240.822C25.7877 241.501 25.4063 241.882 24.5785 241.882H23.3879ZM29.9708 242.961C30.6033 242.961 31.087 242.719 31.4126 242.282L31.4312 242.291V242.887H32.4264V238.348H31.3847V238.896L31.366 238.906C31.0405 238.496 30.5382 238.282 29.9615 238.282C28.7151 238.282 27.7756 239.268 27.7756 240.636C27.7756 242.04 28.7151 242.961 29.9708 242.961ZM30.1382 242.012C29.3662 242.012 28.836 241.445 28.836 240.645C28.836 239.771 29.4127 239.222 30.1382 239.222C30.8824 239.222 31.4312 239.836 31.4312 240.645C31.4312 241.464 30.8452 242.012 30.1382 242.012ZM34.4386 238.348C34.4386 239.008 34.4293 240.068 34.3456 240.766C34.2619 241.482 34.0201 241.984 33.5457 241.984C33.4434 241.984 33.3876 241.975 33.3224 241.966L33.2573 242.859C33.3783 242.905 33.5829 242.933 33.7596 242.933C34.7177 242.933 35.1549 242.217 35.313 241.11C35.3874 240.571 35.4246 239.938 35.4525 239.259H36.6803V242.887H37.7221V238.348H34.4386ZM40.9983 242.961C41.6308 242.961 42.1145 242.719 42.4401 242.282L42.4587 242.291V242.887H43.454V238.348H42.4122V238.896L42.3936 238.906C42.068 238.496 41.5657 238.282 40.989 238.282C39.7426 238.282 38.8031 239.268 38.8031 240.636C38.8031 242.04 39.7426 242.961 40.9983 242.961ZM41.1658 242.012C40.3937 242.012 39.8635 241.445 39.8635 240.645C39.8635 239.771 40.4402 239.222 41.1658 239.222C41.9099 239.222 42.4587 239.836 42.4587 240.645C42.4587 241.464 41.8727 242.012 41.1658 242.012ZM44.7685 242.887H45.8103V241.101H47.8009V242.887H48.8427V238.348H47.8009V240.217H45.8103V238.348H44.7685V242.887ZM52.2469 242.961C53.2329 242.961 53.8189 242.608 54.2003 242.115L53.484 241.482C53.2515 241.789 52.8422 242.012 52.3399 242.012C51.54 242.012 50.9912 241.454 50.9912 240.617C50.9912 239.789 51.5307 239.222 52.3399 239.222C52.8329 239.222 53.2236 239.436 53.484 239.743L54.191 239.129C53.7352 238.571 52.991 238.282 52.2841 238.282C50.9075 238.282 49.9308 239.231 49.9308 240.626C49.9308 242.012 50.9075 242.961 52.2469 242.961Z" fill="#888888"/>
<rect x="291" y="153" width="284" height="122.278" rx="7.88889" fill="#1E1F25"/>
<path d="M327.524 232.39H332.478V207.55H328.537L321.052 212.937L323.366 216.589L327.524 213.443V232.39ZM336.173 237.199H339.608L342.175 227.762H337.294L336.173 237.199ZM353.681 232.715C358.49 232.715 362.07 229.931 362.07 225.628C362.07 222.736 360.515 220.675 358.128 219.59V219.481C360.153 218.288 361.346 216.3 361.346 213.913C361.346 209.683 357.767 207.26 353.356 207.26C349.704 207.26 346.847 209.104 345.69 211.671L349.631 213.805C350.355 212.539 351.403 211.708 353.247 211.708C355.055 211.708 356.501 212.937 356.501 214.709C356.501 216.3 355.525 217.637 353.319 217.637H351.15V221.615H352.886C355.634 221.615 357.008 223.17 357.008 224.977C357.008 227.002 355.344 228.268 353.319 228.268C351.078 228.268 349.704 227.219 349.017 225.447L344.786 227.219C345.98 230.365 349.27 232.715 353.681 232.715ZM364.383 207.55V211.997H374.435L366.3 232.028L371.217 232.932L379.859 210.768V207.55H364.383ZM390.48 232.39H395.325V228.304H398.652V224.11H395.325V207.55H391.384L379.995 225.194V228.304H390.48V232.39ZM385.346 224.327L390.806 215.504V224.327H385.346Z" fill="white"/>
<path d="M321.524 187.325H322.835V180.804H326.009V187.325H327.32V179.634H321.524V187.325ZM331.512 187.412C333.136 187.412 334.285 186.296 334.285 184.693C334.285 183.068 333.136 181.963 331.512 181.963C329.843 181.963 328.739 183.133 328.739 184.693C328.739 186.242 329.843 187.412 331.512 187.412ZM331.512 186.307C330.602 186.307 329.973 185.592 329.973 184.693C329.973 183.772 330.591 183.057 331.512 183.057C332.378 183.057 333.05 183.718 333.05 184.693C333.05 185.646 332.367 186.307 331.512 186.307ZM335.548 187.325H336.761V185.874L337.519 185.029L339.122 187.325H340.541L338.386 184.314L340.422 182.039H338.938L336.783 184.53H336.761V182.039H335.548V187.325ZM342.068 189.47H343.325L346.228 182.039H344.982L343.628 185.581H343.606L342.155 182.039H340.855L343.021 187.033L342.068 189.47ZM347.237 187.325H348.45V183.101H350.616V187.325H351.83V182.039H347.237V187.325ZM355.873 187.412C357.498 187.412 358.647 186.296 358.647 184.693C358.647 183.068 357.498 181.963 355.873 181.963C354.205 181.963 353.1 183.133 353.1 184.693C353.1 186.242 354.205 187.412 355.873 187.412ZM355.873 186.307C354.964 186.307 354.335 185.592 354.335 184.693C354.335 183.772 354.953 183.057 355.873 183.057C356.74 183.057 357.412 183.718 357.412 184.693C357.412 185.646 356.729 186.307 355.873 186.307ZM359.91 187.325H361.123V185.874L361.881 185.029L363.484 187.325H364.903L362.748 184.314L364.784 182.039H363.3L361.145 184.53H361.123V182.039H359.91V187.325Z" fill="#888888"/>
<defs>
<linearGradient id="paint0_linear_2475_2395" x1="248" y1="202.029" x2="248" y2="240" gradientUnits="userSpaceOnUse">
<stop stop-color="#189EFF"/>
<stop offset="1" stop-color="#1890FF" stop-opacity="0.28"/>
</linearGradient>
<linearGradient id="paint1_linear_2475_2395" x1="214" y1="95.5" x2="214" y2="240" gradientUnits="userSpaceOnUse">
<stop stop-color="#189EFF"/>
<stop offset="1" stop-color="#1890FF" stop-opacity="0.28"/>
</linearGradient>
<linearGradient id="paint2_linear_2475_2395" x1="180" y1="130.307" x2="180" y2="240" gradientUnits="userSpaceOnUse">
<stop stop-color="#189EFF"/>
<stop offset="1" stop-color="#1890FF" stop-opacity="0.28"/>
</linearGradient>
<linearGradient id="paint3_linear_2475_2395" x1="146" y1="157.73" x2="146" y2="240" gradientUnits="userSpaceOnUse">
<stop stop-color="#189EFF"/>
<stop offset="1" stop-color="#1890FF" stop-opacity="0.28"/>
</linearGradient>
<linearGradient id="paint4_linear_2475_2395" x1="112" y1="109.212" x2="112" y2="240" gradientUnits="userSpaceOnUse">
<stop stop-color="#189EFF"/>
<stop offset="1" stop-color="#1890FF" stop-opacity="0.28"/>
</linearGradient>
<linearGradient id="paint5_linear_2475_2395" x1="77.9998" y1="173.551" x2="77.9998" y2="240" gradientUnits="userSpaceOnUse">
<stop stop-color="#189EFF"/>
<stop offset="1" stop-color="#1890FF" stop-opacity="0.28"/>
</linearGradient>
<linearGradient id="paint6_linear_2475_2395" x1="43.9998" y1="146.128" x2="43.9998" y2="240" gradientUnits="userSpaceOnUse">
<stop stop-color="#189EFF"/>
<stop offset="1" stop-color="#1890FF" stop-opacity="0.28"/>
</linearGradient>
</defs>
</svg>
