<svg width="575" height="318" viewBox="0 0 575 318" fill="none" xmlns="http://www.w3.org/2000/svg">
<path d="M241 240L241 206.796C241 202.93 244.134 199.796 248 199.796C251.866 199.796 255 202.93 255 206.796L255 240L241 240Z" fill="url(#paint0_linear_1256_195)"/>
<path d="M207 240L207 94C207 90.134 210.134 87 214 87C217.866 87 221 90.134 221 94L221 240L207 240Z" fill="url(#paint1_linear_1256_195)"/>
<path d="M173 240L173 130.854C173 126.988 176.134 123.854 180 123.854C183.866 123.854 187 126.988 187 130.854L187 240L173 240Z" fill="url(#paint2_linear_1256_195)"/>
<path d="M139 240L139 159.891C139 156.025 142.134 152.891 146 152.891C149.866 152.891 153 156.025 153 159.891L153 240L139 240Z" fill="url(#paint3_linear_1256_195)"/>
<path d="M105 240L105 108.518C105 104.652 108.134 101.518 112 101.518C115.866 101.518 119 104.652 119 108.518L119 240L105 240Z" fill="url(#paint4_linear_1256_195)"/>
<path d="M71 240L71 176.642C71 172.776 74.134 169.642 78 169.642C81.866 169.642 85 172.776 85 176.642L85 240L71 240Z" fill="url(#paint5_linear_1256_195)"/>
<path d="M37 240L37 147.606C37 143.74 40.134 140.606 44 140.606C47.866 140.606 51 143.74 51 147.606L51 240L37 240Z" fill="url(#paint6_linear_1256_195)"/>
<circle cx="291" cy="126" r="126" transform="rotate(-90 291 126)" fill="#EFF4FB"/>
<path d="M291 4.80405e-05C316.602 5.1601e-05 341.597 7.79922 362.656 22.359C383.715 36.9188 399.839 57.5483 408.88 81.5006C417.922 105.453 419.453 131.591 413.269 156.435C407.085 181.279 393.479 203.65 374.264 220.568C355.048 237.487 331.135 248.15 305.708 251.139C280.281 254.127 254.547 249.299 231.932 237.297C209.318 225.295 190.896 206.688 179.12 183.955C167.344 161.222 162.772 135.441 166.014 110.045L291 126L291 4.80405e-05Z" fill="#6AA6FF"/>
<path d="M291 4.80405e-05C310.411 5.07401e-05 329.56 4.48498 346.953 13.1049C364.345 21.7249 379.511 34.2467 391.266 49.6936C403.022 65.1404 411.05 83.0945 414.723 102.155C418.397 121.216 417.617 140.867 412.444 159.577C407.271 178.286 397.846 195.547 384.903 210.014C371.96 224.48 355.849 235.761 337.828 242.975C319.807 250.189 300.363 253.142 281.013 251.604C261.663 250.065 242.93 244.076 226.275 234.105L291 126L291 4.80405e-05Z" fill="#1859FF"/>
<rect y="213" width="245" height="105" rx="6.77419" fill="#F6F8FB"/>
<path d="M31.604 272.061C35.8576 272.061 38.9935 270.291 38.9935 265.603C38.9935 261.784 36.758 258.928 31.7592 258.928H24.2766V269.391H22.0721V272.061H24.2766V273.8H22.0721V276.346H24.2766V280.258H28.5923V276.346H35.6403V273.8H28.5923V272.061H31.604ZM28.5302 262.809H31.2004C33.3738 262.809 34.4915 264.051 34.4915 265.913C34.4915 267.559 33.4669 268.894 31.2004 268.894H28.5302V262.809ZM53.6702 280.258H57.9238V258.928H54.5395L48.1125 263.554L50.0996 266.69L53.6702 263.988V280.258ZM70.1632 280.258H74.3237V276.749H77.1801V273.148H74.3237V258.928H70.9394L61.1591 274.079V276.749H70.1632V280.258ZM65.7543 273.334L70.4426 265.758V273.334H65.7543ZM78.7718 258.928V262.747H87.4033L80.4174 279.947L84.64 280.724L92.0605 261.691V258.928H78.7718ZM92.1758 284.387H95.1254L97.3298 276.284H93.1383L92.1758 284.387ZM107.21 280.537C111.339 280.537 114.413 278.147 114.413 274.452C114.413 271.968 113.078 270.198 111.029 269.267V269.174C112.767 268.149 113.792 266.441 113.792 264.392C113.792 260.759 110.718 258.679 106.93 258.679C103.794 258.679 101.342 260.263 100.348 262.467L103.732 264.299C104.353 263.212 105.254 262.498 106.837 262.498C108.39 262.498 109.632 263.554 109.632 265.075C109.632 266.441 108.793 267.59 106.899 267.59H105.036V271.005H106.527C108.886 271.005 110.066 272.34 110.066 273.893C110.066 275.632 108.638 276.718 106.899 276.718C104.974 276.718 103.794 275.818 103.204 274.297L99.5718 275.818C100.596 278.519 103.422 280.537 107.21 280.537ZM116.959 280.258H130.837V276.439H123.168L123.137 276.346L127.112 272.185C129.875 269.329 130.651 267.435 130.651 265.013C130.651 261.07 127.422 258.71 123.851 258.71C120.281 258.71 118.045 260.48 116.803 262.747L119.815 264.889C120.747 263.336 122.02 262.622 123.541 262.622C125.187 262.622 126.366 263.864 126.366 265.51C126.366 267.217 125.249 268.646 123.51 270.447L116.897 277.495L116.959 280.258ZM141.69 280.258H145.85V276.749H148.707V273.148H145.85V258.928H142.466L132.686 274.079V276.749H141.69V280.258ZM137.281 273.334L141.969 265.758V273.334H137.281Z" fill="#1C1D28"/>
<path d="M22.2604 242.887H24.5765C26.2694 242.887 26.9484 242.115 26.9484 240.757C26.9484 239.659 26.381 238.794 24.5858 238.794H23.3859V237.287H26.4461V236.283H22.2604V242.887ZM23.3859 241.882V239.78H24.5858C25.33 239.78 25.7857 240.096 25.7857 240.822C25.7857 241.501 25.4044 241.882 24.5765 241.882H23.3859ZM29.9689 242.961C30.6014 242.961 31.085 242.719 31.4106 242.282L31.4292 242.291V242.887H32.4245V238.348H31.3827V238.896L31.3641 238.906C31.0385 238.496 30.5363 238.282 29.9596 238.282C28.7131 238.282 27.7737 239.268 27.7737 240.636C27.7737 242.04 28.7131 242.961 29.9689 242.961ZM30.1363 242.012C29.3642 242.012 28.8341 241.445 28.8341 240.645C28.8341 239.771 29.4108 239.222 30.1363 239.222C30.8804 239.222 31.4292 239.836 31.4292 240.645C31.4292 241.464 30.8432 242.012 30.1363 242.012ZM34.4367 238.348C34.4367 239.008 34.4274 240.068 34.3437 240.766C34.26 241.482 34.0181 241.984 33.5437 241.984C33.4414 241.984 33.3856 241.975 33.3205 241.966L33.2554 242.859C33.3763 242.905 33.5809 242.933 33.7577 242.933C34.7157 242.933 35.1529 242.217 35.311 241.11C35.3855 240.571 35.4227 239.938 35.4506 239.259H36.6784V242.887H37.7202V238.348H34.4367ZM40.9964 242.961C41.6289 242.961 42.1126 242.719 42.4381 242.282L42.4567 242.291V242.887H43.452V238.348H42.4102V238.896L42.3916 238.906C42.0661 238.496 41.5638 238.282 40.9871 238.282C39.7407 238.282 38.8012 239.268 38.8012 240.636C38.8012 242.04 39.7407 242.961 40.9964 242.961ZM41.1638 242.012C40.3918 242.012 39.8616 241.445 39.8616 240.645C39.8616 239.771 40.4383 239.222 41.1638 239.222C41.9079 239.222 42.4567 239.836 42.4567 240.645C42.4567 241.464 41.8707 242.012 41.1638 242.012ZM44.7666 242.887H45.8084V241.101H47.7989V242.887H48.8407V238.348H47.7989V240.217H45.8084V238.348H44.7666V242.887ZM52.245 242.961C53.2309 242.961 53.8169 242.608 54.1983 242.115L53.4821 241.482C53.2495 241.789 52.8403 242.012 52.338 242.012C51.538 242.012 50.9892 241.454 50.9892 240.617C50.9892 239.789 51.5287 239.222 52.338 239.222C52.831 239.222 53.2216 239.436 53.4821 239.743L54.189 239.129C53.7332 238.571 52.9891 238.282 52.2822 238.282C50.9055 238.282 49.9288 239.231 49.9288 240.626C49.9288 242.012 50.9055 242.961 52.245 242.961Z" fill="#888888"/>
<rect x="291" y="153" width="284" height="122.278" rx="7.88889" fill="#F6F8FB"/>
<path d="M327.525 232.391H332.479V207.55H328.538L321.053 212.938L323.367 216.59L327.525 213.444V232.391ZM336.174 237.2H339.609L342.176 227.762H337.295L336.174 237.2ZM353.682 232.716C358.491 232.716 362.071 229.932 362.071 225.629C362.071 222.737 360.516 220.676 358.129 219.591V219.482C360.154 218.289 361.347 216.301 361.347 213.914C361.347 209.684 357.768 207.261 353.357 207.261C349.705 207.261 346.848 209.105 345.691 211.672L349.632 213.806C350.356 212.54 351.404 211.709 353.248 211.709C355.056 211.709 356.502 212.938 356.502 214.71C356.502 216.301 355.526 217.638 353.32 217.638H351.151V221.616H352.887C355.635 221.616 357.008 223.17 357.008 224.978C357.008 227.003 355.345 228.269 353.32 228.269C351.079 228.269 349.705 227.22 349.018 225.448L344.787 227.22C345.98 230.366 349.271 232.716 353.682 232.716ZM364.384 207.55V211.998H374.436L366.301 232.029L371.218 232.933L379.86 210.768V207.55H364.384ZM390.481 232.391H395.326V228.305H398.653V224.111H395.326V207.55H391.385L379.996 225.195V228.305H390.481V232.391ZM385.347 224.328L390.807 215.505V224.328H385.347Z" fill="#1C1D28"/>
<path d="M321.525 187.324H322.836V180.803H326.01V187.324H327.321V179.633H321.525V187.324ZM331.513 187.411C333.137 187.411 334.286 186.295 334.286 184.692C334.286 183.067 333.137 181.962 331.513 181.962C329.844 181.962 328.74 183.132 328.74 184.692C328.74 186.241 329.844 187.411 331.513 187.411ZM331.513 186.306C330.603 186.306 329.974 185.591 329.974 184.692C329.974 183.771 330.592 183.056 331.513 183.056C332.379 183.056 333.051 183.717 333.051 184.692C333.051 185.645 332.368 186.306 331.513 186.306ZM335.549 187.324H336.762V185.873L337.52 185.028L339.123 187.324H340.542L338.387 184.313L340.423 182.038H338.939L336.784 184.53H336.762V182.038H335.549V187.324ZM342.069 189.469H343.326L346.229 182.038H344.983L343.629 185.58H343.607L342.156 182.038H340.856L343.022 187.032L342.069 189.469ZM347.238 187.324H348.451V183.1H350.617V187.324H351.831V182.038H347.238V187.324ZM355.874 187.411C357.499 187.411 358.648 186.295 358.648 184.692C358.648 183.067 357.499 181.962 355.874 181.962C354.206 181.962 353.101 183.132 353.101 184.692C353.101 186.241 354.206 187.411 355.874 187.411ZM355.874 186.306C354.965 186.306 354.336 185.591 354.336 184.692C354.336 183.771 354.954 183.056 355.874 183.056C356.741 183.056 357.413 183.717 357.413 184.692C357.413 185.645 356.73 186.306 355.874 186.306ZM359.911 187.324H361.124V185.873L361.882 185.028L363.485 187.324H364.904L362.749 184.313L364.785 182.038H363.301L361.146 184.53H361.124V182.038H359.911V187.324Z" fill="#888888"/>
<defs>
<linearGradient id="paint0_linear_1256_195" x1="248" y1="202.029" x2="248" y2="240" gradientUnits="userSpaceOnUse">
<stop stop-color="#189EFF"/>
<stop offset="1" stop-color="#1890FF" stop-opacity="0.28"/>
</linearGradient>
<linearGradient id="paint1_linear_1256_195" x1="214" y1="95.5" x2="214" y2="240" gradientUnits="userSpaceOnUse">
<stop stop-color="#189EFF"/>
<stop offset="1" stop-color="#1890FF" stop-opacity="0.28"/>
</linearGradient>
<linearGradient id="paint2_linear_1256_195" x1="180" y1="130.307" x2="180" y2="240" gradientUnits="userSpaceOnUse">
<stop stop-color="#189EFF"/>
<stop offset="1" stop-color="#1890FF" stop-opacity="0.28"/>
</linearGradient>
<linearGradient id="paint3_linear_1256_195" x1="146" y1="157.73" x2="146" y2="240" gradientUnits="userSpaceOnUse">
<stop stop-color="#189EFF"/>
<stop offset="1" stop-color="#1890FF" stop-opacity="0.28"/>
</linearGradient>
<linearGradient id="paint4_linear_1256_195" x1="112" y1="109.212" x2="112" y2="240" gradientUnits="userSpaceOnUse">
<stop stop-color="#189EFF"/>
<stop offset="1" stop-color="#1890FF" stop-opacity="0.28"/>
</linearGradient>
<linearGradient id="paint5_linear_1256_195" x1="77.9998" y1="173.551" x2="77.9998" y2="240" gradientUnits="userSpaceOnUse">
<stop stop-color="#189EFF"/>
<stop offset="1" stop-color="#1890FF" stop-opacity="0.28"/>
</linearGradient>
<linearGradient id="paint6_linear_1256_195" x1="43.9998" y1="146.128" x2="43.9998" y2="240" gradientUnits="userSpaceOnUse">
<stop stop-color="#189EFF"/>
<stop offset="1" stop-color="#1890FF" stop-opacity="0.28"/>
</linearGradient>
</defs>
</svg>
