<svg width="37" height="37" viewBox="0 0 37 37" fill="none" xmlns="http://www.w3.org/2000/svg">
<path d="M11.5622 3.08271C8.80259 4.85562 6.93717 7.98521 6.93717 11.5619C6.93717 15.1385 8.80259 18.2681 11.6084 20.041C6.87551 20.041 3.08301 16.2485 3.08301 11.5619C3.08301 9.31306 3.97635 7.15635 5.5665 5.5662C7.15665 3.97605 9.31336 3.08271 11.5622 3.08271M29.3993 5.39521L31.6038 7.59979L7.60009 31.6035L5.39551 29.399L29.3993 5.39521ZM19.8718 9.14146L17.5901 7.70771L15.3701 9.24937L16.0176 6.62854L13.8747 4.99437L16.5726 4.80937L17.4668 2.26562L18.4997 4.77854L21.1668 4.82479L19.0855 6.56688L19.8718 9.14146ZM14.7843 14.7069L12.9959 13.5815L11.2693 14.784L11.7934 12.749L10.113 11.4694L12.2097 11.3306L12.9034 9.34188L13.6897 11.2998L15.7863 11.346L14.1676 12.6873L14.7843 14.7069M29.2913 20.8119C29.2913 23.0607 28.398 25.2174 26.8079 26.8076C25.2177 28.3977 23.061 29.291 20.8122 29.291C18.9313 29.291 17.1893 28.6744 15.7863 27.6415L27.6418 15.786C28.6747 17.189 29.2913 18.931 29.2913 20.8119M22.508 30.956L26.7784 29.1831L26.4084 34.3477L22.508 30.956M29.1834 26.7935L30.9563 22.5231L34.348 26.439L29.1834 26.7935M30.9563 19.1469L29.1988 14.861L34.348 15.231L30.9563 19.1469ZM14.8459 29.1831L19.1163 30.956L15.2159 34.3323L14.8459 29.1831Z" fill="#333333"/>
</svg>
